<?xml version="1.0" encoding="UTF-8"?>
<svg xmlns="http://www.w3.org/2000/svg" xmlns:xlink="http://www.w3.org/1999/xlink" width="133px" height="150px" viewBox="0 0 133 149" version="1.1">
<defs>
<clipPath id="clip1">
  <path d="M 42.277344 50.378906 L 90.722656 50.378906 L 90.722656 98.621094 L 42.277344 98.621094 Z M 42.277344 50.378906 "/>
</clipPath>
<clipPath id="clip2">
  <path d="M 62 57.617188 L 71 57.617188 L 71 67 L 62 67 Z M 62 57.617188 "/>
</clipPath>
<clipPath id="clip3">
  <path d="M 50 67 L 83 67 L 83 91.386719 L 50 91.386719 Z M 50 67 "/>
</clipPath>
<clipPath id="clip4">
  <path d="M 63 33.566406 L 70 33.566406 L 70 42 L 63 42 Z M 63 33.566406 "/>
</clipPath>
<clipPath id="clip5">
  <path d="M 65 109 L 70 109 L 70 115.433594 L 65 115.433594 Z M 65 109 "/>
</clipPath>
</defs>
<g id="surface1">
<path style=" stroke:none;fill-rule:nonzero;fill:rgb(100%,100%,100%);fill-opacity:1;" d="M 133 84.492188 C 132.96875 81 130.75 78.230469 130.71875 74.738281 C 130.699219 71.246094 132.882812 67.027344 132.851562 63.535156 C 131.742188 60.222656 128.765625 58.277344 127.65625 54.964844 C 126.546875 51.65625 127.308594 46.957031 126.214844 43.644531 C 124.132812 40.828125 120.691406 39.90625 118.621094 37.105469 C 116.535156 34.289062 115.808594 29.589844 113.742188 26.789062 C 110.894531 24.761719 107.335938 24.929688 104.472656 22.902344 C 101.628906 20.875 99.476562 16.625 96.613281 14.597656 C 93.273438 13.542969 89.945312 14.8125 86.605469 13.738281 C 83.261719 12.683594 79.902344 9.308594 76.558594 8.253906 C 73.050781 8.285156 70.273438 10.492188 66.765625 10.527344 C 63.257812 10.542969 59.019531 8.367188 55.511719 8.402344 C 52.1875 9.503906 50.234375 12.472656 46.910156 13.574219 C 43.582031 14.679688 38.867188 13.921875 35.542969 15.023438 C 32.710938 17.101562 31.785156 20.527344 28.972656 22.589844 C 26.144531 24.664062 21.425781 25.390625 18.613281 27.464844 C 16.578125 30.300781 16.746094 33.84375 14.710938 36.691406 C 12.675781 39.527344 8.40625 41.667969 6.371094 44.519531 C 5.3125 47.847656 6.570312 51.160156 5.511719 54.488281 C 4.449219 57.816406 1.058594 61.160156 0 64.488281 C 0.015625 67.984375 2.25 70.75 2.285156 74.246094 C 2.300781 77.738281 0.117188 81.957031 0.148438 85.449219 C 1.257812 88.761719 4.234375 90.707031 5.34375 94.015625 C 6.453125 97.328125 5.691406 102.027344 6.800781 105.335938 C 8.886719 108.15625 12.328125 109.078125 14.394531 111.894531 C 16.480469 114.714844 17.207031 119.410156 19.277344 122.210938 C 22.121094 124.238281 25.679688 124.070312 28.542969 126.097656 C 31.386719 128.125 33.539062 132.375 36.402344 134.402344 C 39.746094 135.457031 43.070312 134.207031 46.414062 135.261719 C 49.753906 136.316406 53.113281 139.691406 56.457031 140.746094 C 59.964844 140.714844 62.742188 138.507812 66.253906 138.472656 C 69.761719 138.457031 73.996094 140.632812 77.503906 140.597656 C 80.828125 139.496094 82.78125 136.527344 86.109375 135.425781 C 89.433594 134.320312 94.148438 135.078125 97.476562 133.976562 C 100.304688 131.898438 101.230469 128.472656 104.0625 126.410156 C 106.890625 124.335938 111.605469 123.609375 114.417969 121.550781 C 116.453125 118.71875 116.289062 115.175781 118.324219 112.324219 C 120.359375 109.488281 124.628906 107.347656 126.664062 104.496094 C 127.722656 101.167969 126.464844 97.855469 127.523438 94.527344 C 128.550781 91.167969 131.941406 87.820312 133 84.492188 Z M 127.175781 94.117188 C 125.671875 97.066406 121.980469 99.6875 120.457031 102.636719 C 118.953125 105.585938 119.613281 108.878906 118.109375 111.828125 C 115.757812 114.167969 111.441406 115.519531 109.074219 117.859375 C 106.722656 120.199219 106.34375 123.546875 103.976562 125.882812 C 101.015625 127.382812 96.480469 127.335938 93.519531 128.851562 C 90.558594 130.351562 89.152344 133.414062 86.191406 134.914062 C 82.898438 135.425781 78.613281 133.992188 75.320312 134.503906 C 72.027344 135.011719 69.742188 137.5 66.46875 138.011719 C 63.175781 137.5 59.550781 134.800781 56.257812 134.289062 C 52.964844 133.761719 50.035156 135.425781 46.742188 134.898438 C 43.78125 133.398438 41.152344 129.707031 38.1875 128.207031 C 35.226562 126.707031 31.917969 127.367188 28.941406 125.867188 C 26.589844 123.527344 25.234375 119.226562 22.882812 116.871094 C 20.535156 114.53125 17.175781 114.136719 14.824219 111.796875 C 13.320312 108.847656 13.371094 104.332031 11.847656 101.382812 C 10.339844 98.433594 7.265625 97.03125 5.757812 94.082031 C 5.246094 90.804688 6.683594 86.535156 6.171875 83.257812 C 5.640625 79.980469 3.160156 77.703125 2.648438 74.441406 C 3.175781 71.164062 5.875 67.554688 6.386719 64.277344 C 6.898438 60.996094 5.246094 58.082031 5.773438 54.800781 C 7.28125 51.851562 10.988281 49.230469 12.492188 46.28125 C 14 43.332031 13.335938 40.039062 14.84375 37.070312 C 17.191406 34.730469 21.511719 33.382812 23.875 31.042969 C 26.226562 28.703125 26.625 25.355469 28.972656 23.015625 C 31.933594 21.515625 36.46875 21.566406 39.429688 20.050781 C 42.390625 18.550781 43.796875 15.488281 46.761719 13.988281 C 50.054688 13.476562 54.339844 14.910156 57.632812 14.398438 C 60.925781 13.886719 63.207031 11.398438 66.484375 10.890625 C 69.777344 11.398438 73.398438 14.101562 76.691406 14.613281 C 79.984375 15.140625 82.914062 13.476562 86.207031 14.003906 C 89.167969 15.503906 91.800781 19.195312 94.761719 20.695312 C 97.722656 22.191406 101.03125 21.535156 104.011719 23.035156 C 106.359375 25.371094 107.71875 29.671875 110.066406 32.03125 C 112.417969 34.371094 115.777344 34.765625 118.125 37.105469 C 119.628906 40.054688 119.582031 44.570312 121.101562 47.519531 C 122.609375 50.46875 125.6875 51.867188 127.191406 54.816406 C 127.722656 58.097656 126.265625 62.363281 126.777344 65.644531 C 127.292969 68.921875 129.789062 71.195312 130.304688 74.457031 C 129.789062 77.738281 127.078125 81.347656 126.5625 84.625 C 126.050781 87.90625 127.707031 90.835938 127.175781 94.117188 Z M 127.175781 94.117188 "/>
<g clip-path="url(#clip1)" clip-rule="nonzero">
<path style=" stroke:none;fill-rule:nonzero;fill:rgb(100%,100%,100%);fill-opacity:1;" d="M 90.605469 74.5 C 90.605469 87.757812 79.8125 98.503906 66.5 98.503906 C 53.1875 98.503906 42.394531 87.757812 42.394531 74.5 C 42.394531 61.242188 53.1875 50.496094 66.5 50.496094 C 79.8125 50.496094 90.605469 61.242188 90.605469 74.5 Z M 90.605469 74.5 "/>
</g>
<g clip-path="url(#clip2)" clip-rule="nonzero">
<path style=" stroke:none;fill-rule:nonzero;fill:rgb(22.352941%,80%,80%);fill-opacity:1;" d="M 71 62.09375 C 71 64.570312 68.984375 66.574219 66.5 66.574219 C 64.015625 66.574219 62 64.570312 62 62.09375 C 62 59.621094 64.015625 57.617188 66.5 57.617188 C 68.984375 57.617188 71 59.621094 71 62.09375 Z M 71 62.09375 "/>
</g>
<g clip-path="url(#clip3)" clip-rule="nonzero">
<path style=" stroke:none;fill-rule:nonzero;fill:rgb(22.352941%,80%,80%);fill-opacity:1;" d="M 66.5 89.921875 L 77.066406 91.355469 C 78.496094 91.550781 79.863281 90.699219 80.3125 89.335938 C 80.765625 87.96875 80.171875 86.476562 78.902344 85.789062 L 71.5 81.765625 L 71.859375 76.035156 L 73.441406 79.417969 C 73.554688 79.652344 73.703125 79.867188 73.890625 80.050781 L 78.875 85.019531 C 79.316406 85.457031 79.886719 85.671875 80.464844 85.671875 C 81.039062 85.671875 81.613281 85.453125 82.050781 85.019531 C 82.925781 84.144531 82.925781 82.730469 82.050781 81.859375 L 77.34375 77.171875 L 74.308594 70.648438 C 73.480469 68.992188 72.285156 67.953125 70.488281 67.953125 L 62.511719 67.953125 C 60.71875 67.953125 59.519531 68.992188 58.695312 70.648438 L 55.65625 77.148438 L 50.949219 81.847656 C 50.074219 82.71875 50.074219 84.140625 50.949219 85.011719 C 51.386719 85.449219 51.960938 85.671875 52.535156 85.671875 C 53.113281 85.671875 53.683594 85.453125 54.125 85.015625 L 59.109375 80.050781 C 59.296875 79.867188 59.445312 79.652344 59.558594 79.417969 L 61.140625 76.035156 L 61.503906 81.765625 L 54.097656 85.789062 C 52.828125 86.476562 52.234375 87.96875 52.6875 89.335938 C 53.136719 90.699219 54.503906 91.550781 55.933594 91.355469 Z M 66.5 89.921875 "/>
</g>
<path style=" stroke:none;fill-rule:nonzero;fill:rgb(100%,100%,100%);fill-opacity:1;" d="M 27.824219 61.523438 L 28.167969 60.574219 C 28.195312 60.488281 28.246094 60.425781 28.3125 60.378906 C 28.382812 60.332031 28.457031 60.3125 28.542969 60.320312 L 36.273438 60.511719 L 35.929688 61.453125 L 29.398438 61.1875 C 29.289062 61.179688 29.179688 61.175781 29.066406 61.167969 C 28.957031 61.164062 28.851562 61.160156 28.75 61.15625 L 28.644531 61.445312 C 28.726562 61.503906 28.8125 61.566406 28.902344 61.628906 C 28.992188 61.691406 29.082031 61.757812 29.164062 61.828125 L 34.359375 65.785156 L 34.019531 66.722656 L 27.949219 61.949219 C 27.882812 61.902344 27.835938 61.839844 27.8125 61.761719 C 27.789062 61.683594 27.792969 61.605469 27.824219 61.523438 Z M 31.460938 64.34375 L 32.769531 60.734375 L 33.558594 61.015625 L 32.25 64.628906 Z M 31.460938 64.34375 "/>
<path style=" stroke:none;fill-rule:nonzero;fill:rgb(100%,100%,100%);fill-opacity:1;" d="M 36.074219 59.320312 L 34.476562 54.421875 L 35.007812 53.523438 L 36.609375 58.425781 Z M 36.074219 59.320312 L 38.34375 55.40625 L 39.003906 55.785156 L 36.730469 59.699219 Z M 32.105469 56.996094 L 34.34375 53.140625 L 35.007812 53.523438 L 32.769531 57.378906 Z M 32.105469 56.996094 "/>
<path style=" stroke:none;fill-rule:nonzero;fill:rgb(100%,100%,100%);fill-opacity:1;" d="M 37.738281 48.75 C 38.164062 48.246094 38.640625 48.011719 39.175781 48.046875 C 39.703125 48.082031 40.355469 48.425781 41.125 49.074219 C 41.480469 49.371094 41.765625 49.660156 41.984375 49.945312 C 42.207031 50.230469 42.347656 50.519531 42.414062 50.808594 C 42.480469 51.097656 42.460938 51.398438 42.355469 51.707031 C 42.253906 52.019531 42.050781 52.347656 41.753906 52.703125 C 41.636719 52.839844 41.503906 52.988281 41.355469 53.140625 C 41.203125 53.292969 41.046875 53.441406 40.878906 53.585938 C 40.710938 53.730469 40.542969 53.871094 40.371094 54 C 40.199219 54.128906 40.03125 54.238281 39.867188 54.328125 L 39.863281 53.351562 C 40.035156 53.234375 40.199219 53.117188 40.351562 52.996094 C 40.503906 52.871094 40.648438 52.738281 40.777344 52.605469 C 40.90625 52.46875 41.027344 52.335938 41.136719 52.207031 C 41.351562 51.941406 41.476562 51.6875 41.519531 51.449219 C 41.558594 51.207031 41.496094 50.957031 41.328125 50.691406 C 41.164062 50.429688 40.886719 50.132812 40.5 49.808594 C 40.125 49.492188 39.800781 49.269531 39.53125 49.136719 C 39.261719 49.007812 39.019531 48.972656 38.804688 49.035156 C 38.585938 49.097656 38.367188 49.261719 38.148438 49.523438 C 37.957031 49.746094 37.835938 50.011719 37.785156 50.3125 C 37.734375 50.617188 37.703125 50.984375 37.691406 51.421875 L 37.167969 51.066406 C 37.128906 50.75 37.125 50.453125 37.152344 50.175781 C 37.183594 49.894531 37.246094 49.636719 37.347656 49.394531 C 37.445312 49.152344 37.578125 48.9375 37.738281 48.75 Z M 34.171875 49.539062 L 34.773438 48.828125 L 36.304688 50.113281 C 36.476562 50.261719 36.636719 50.402344 36.773438 50.53125 C 36.914062 50.664062 37.042969 50.808594 37.164062 50.96875 L 37.34375 51 L 40.503906 53.648438 L 39.867188 54.328125 Z M 34.171875 49.539062 "/>
<path style=" stroke:none;fill-rule:nonzero;fill:rgb(100%,100%,100%);fill-opacity:1;" d="M 41.121094 45.597656 L 41.851562 45.007812 L 44.222656 47.917969 C 44.429688 48.183594 44.628906 48.332031 44.820312 48.355469 C 45.011719 48.382812 45.226562 48.296875 45.464844 48.101562 C 45.699219 47.914062 45.886719 47.671875 46.027344 47.375 C 46.167969 47.078125 46.316406 46.691406 46.46875 46.21875 L 46.972656 46.644531 C 46.855469 47.164062 46.699219 47.609375 46.5 47.988281 C 46.300781 48.363281 46.042969 48.679688 45.730469 48.933594 C 44.972656 49.546875 44.28125 49.472656 43.664062 48.714844 Z M 43.960938 43.300781 L 44.691406 42.710938 L 48.070312 46.859375 L 47.488281 47.332031 L 46.78125 46.601562 L 46.601562 46.535156 Z M 43.960938 43.300781 "/>
<path style=" stroke:none;fill-rule:nonzero;fill:rgb(100%,100%,100%);fill-opacity:1;" d="M 50.175781 39.648438 L 51.136719 39.132812 L 50.582031 41.65625 C 50.570312 41.738281 50.546875 41.828125 50.515625 41.921875 C 50.480469 42.019531 50.449219 42.09375 50.421875 42.148438 L 50.433594 42.171875 C 50.496094 42.179688 50.578125 42.203125 50.683594 42.242188 C 50.789062 42.28125 50.882812 42.324219 50.96875 42.371094 L 53.828125 43.757812 L 52.863281 44.273438 L 49.539062 42.574219 Z M 46.164062 39.136719 L 46.992188 38.695312 L 48.617188 41.699219 C 48.722656 41.898438 48.816406 42.085938 48.890625 42.261719 C 48.96875 42.445312 49.039062 42.636719 49.109375 42.839844 C 49.238281 43.003906 49.355469 43.171875 49.464844 43.347656 C 49.578125 43.519531 49.679688 43.691406 49.769531 43.859375 L 50.632812 45.460938 L 49.804688 45.902344 Z M 48.746094 42.660156 L 49.84375 42.074219 L 50.167969 42.675781 L 49.070312 43.261719 Z M 48.746094 42.660156 "/>
<path style=" stroke:none;fill-rule:nonzero;fill:rgb(100%,100%,100%);fill-opacity:1;" d="M 55.8125 37.378906 C 56.191406 37.253906 56.527344 37.199219 56.820312 37.214844 C 57.117188 37.230469 57.367188 37.335938 57.578125 37.527344 C 57.789062 37.71875 57.960938 38.023438 58.097656 38.433594 L 59.277344 42.007812 L 58.578125 42.234375 L 58.074219 41.175781 L 57.976562 41.082031 L 57.195312 38.726562 C 57.09375 38.414062 56.949219 38.210938 56.761719 38.125 C 56.574219 38.035156 56.277344 38.058594 55.875 38.191406 C 55.609375 38.277344 55.28125 38.398438 54.886719 38.5625 C 54.496094 38.71875 54.109375 38.878906 53.730469 39.039062 L 53.429688 38.410156 C 53.652344 38.292969 53.898438 38.167969 54.167969 38.042969 C 54.441406 37.914062 54.722656 37.792969 55.007812 37.675781 C 55.292969 37.558594 55.5625 37.460938 55.8125 37.378906 Z M 55.222656 39.871094 L 57.824219 39.015625 L 58.039062 39.6875 L 55.597656 40.496094 C 55.359375 40.582031 55.207031 40.703125 55.152344 40.859375 C 55.09375 41.011719 55.101562 41.195312 55.171875 41.410156 L 55.277344 41.730469 C 55.367188 41.996094 55.492188 42.167969 55.660156 42.25 C 55.824219 42.328125 56.046875 42.324219 56.328125 42.230469 C 56.519531 42.167969 56.730469 42.058594 56.953125 41.90625 C 57.179688 41.75 57.390625 41.554688 57.589844 41.320312 C 57.792969 41.085938 57.957031 40.816406 58.085938 40.511719 L 58.304688 41.171875 C 58.261719 41.292969 58.1875 41.441406 58.089844 41.617188 C 57.988281 41.792969 57.859375 41.972656 57.699219 42.15625 C 57.539062 42.34375 57.351562 42.519531 57.136719 42.675781 C 56.925781 42.835938 56.679688 42.960938 56.398438 43.050781 C 56.101562 43.152344 55.816406 43.183594 55.550781 43.152344 C 55.285156 43.121094 55.054688 43.019531 54.851562 42.851562 C 54.652344 42.679688 54.503906 42.441406 54.402344 42.136719 L 54.21875 41.582031 C 54.089844 41.1875 54.113281 40.839844 54.289062 40.539062 C 54.464844 40.238281 54.777344 40.015625 55.222656 39.871094 Z M 55.222656 39.871094 "/>
<g clip-path="url(#clip4)" clip-rule="nonzero">
<path style=" stroke:none;fill-rule:nonzero;fill:rgb(100%,100%,100%);fill-opacity:1;" d="M 63.785156 40.503906 L 67.605469 34.417969 L 68.664062 34.386719 L 64.855469 40.476562 Z M 63.785156 40.503906 L 68.96875 40.304688 L 69.003906 41.128906 L 63.816406 41.328125 Z M 63.589844 33.761719 L 68.632812 33.566406 L 68.664062 34.386719 L 63.621094 34.582031 Z M 63.589844 33.761719 "/>
</g>
<path style=" stroke:none;fill-rule:nonzero;fill:rgb(100%,100%,100%);fill-opacity:1;" d="M 73.207031 36.191406 C 73.554688 36.242188 73.890625 36.335938 74.222656 36.476562 C 74.550781 36.617188 74.855469 36.800781 75.140625 37.035156 L 75 37.605469 C 74.675781 37.453125 74.386719 37.328125 74.132812 37.230469 C 73.878906 37.136719 73.605469 37.066406 73.304688 37.023438 C 73 36.976562 72.746094 36.996094 72.546875 37.074219 C 72.34375 37.152344 72.179688 37.324219 72.050781 37.597656 C 71.921875 37.863281 71.816406 38.257812 71.742188 38.78125 C 71.664062 39.300781 71.648438 39.710938 71.691406 40.011719 C 71.730469 40.316406 71.832031 40.539062 72 40.679688 C 72.160156 40.820312 72.386719 40.914062 72.671875 40.953125 C 72.882812 40.984375 73.074219 40.988281 73.253906 40.960938 C 73.433594 40.929688 73.625 40.867188 73.839844 40.773438 C 74.050781 40.675781 74.296875 40.554688 74.585938 40.402344 L 74.582031 41.070312 C 74.25 41.296875 73.886719 41.472656 73.484375 41.609375 C 73.089844 41.742188 72.675781 41.777344 72.246094 41.714844 C 71.574219 41.617188 71.132812 41.3125 70.914062 40.796875 C 70.699219 40.289062 70.660156 39.574219 70.796875 38.652344 C 70.894531 37.964844 71.050781 37.433594 71.253906 37.054688 C 71.457031 36.671875 71.722656 36.414062 72.046875 36.289062 C 72.367188 36.15625 72.753906 36.125 73.207031 36.191406 Z M 75.367188 34.277344 L 76.296875 34.414062 L 75.175781 42.011719 L 74.457031 41.90625 L 74.484375 40.964844 L 74.394531 40.875 L 74.929688 37.253906 L 75.019531 37.097656 C 75.023438 36.890625 75.03125 36.691406 75.050781 36.5 C 75.070312 36.316406 75.097656 36.117188 75.128906 35.90625 Z M 75.367188 34.277344 "/>
<path style=" stroke:none;fill-rule:nonzero;fill:rgb(100%,100%,100%);fill-opacity:1;" d="M 81.035156 38.214844 C 81.617188 38.421875 82.050781 38.671875 82.339844 38.964844 C 82.628906 39.261719 82.777344 39.632812 82.792969 40.074219 C 82.804688 40.515625 82.695312 41.058594 82.46875 41.699219 C 82.238281 42.339844 81.980469 42.832031 81.691406 43.167969 C 81.398438 43.503906 81.050781 43.695312 80.640625 43.742188 C 80.226562 43.792969 79.730469 43.710938 79.152344 43.507812 C 78.574219 43.304688 78.140625 43.054688 77.851562 42.757812 C 77.566406 42.464844 77.414062 42.09375 77.398438 41.652344 C 77.378906 41.207031 77.484375 40.664062 77.714844 40.019531 C 77.941406 39.378906 78.203125 38.890625 78.5 38.558594 C 78.789062 38.226562 79.140625 38.03125 79.554688 37.980469 C 79.964844 37.933594 80.457031 38.011719 81.035156 38.214844 Z M 80.769531 38.960938 C 80.402344 38.828125 80.089844 38.785156 79.839844 38.824219 C 79.585938 38.863281 79.367188 39.007812 79.179688 39.25 C 78.992188 39.492188 78.8125 39.859375 78.636719 40.347656 C 78.460938 40.839844 78.371094 41.238281 78.363281 41.546875 C 78.355469 41.851562 78.4375 42.101562 78.605469 42.289062 C 78.777344 42.476562 79.046875 42.632812 79.414062 42.761719 C 79.78125 42.890625 80.089844 42.9375 80.347656 42.902344 C 80.601562 42.863281 80.824219 42.722656 81.011719 42.480469 C 81.199219 42.234375 81.382812 41.867188 81.554688 41.378906 C 81.730469 40.890625 81.820312 40.492188 81.828125 40.183594 C 81.835938 39.875 81.753906 39.628906 81.582031 39.4375 C 81.40625 39.25 81.132812 39.089844 80.769531 38.960938 Z M 80.769531 38.960938 "/>
<path style=" stroke:none;fill-rule:nonzero;fill:rgb(100%,100%,100%);fill-opacity:1;" d="M 85.746094 40.410156 L 86.382812 40.761719 L 85.988281 41.710938 L 85.988281 41.898438 L 83.957031 45.53125 L 83.140625 45.078125 Z M 88.535156 41.804688 L 88.746094 41.921875 L 88.222656 42.632812 L 87.953125 42.484375 C 87.675781 42.332031 87.371094 42.234375 87.03125 42.195312 C 86.691406 42.152344 86.269531 42.125 85.757812 42.109375 L 85.972656 41.5625 C 86.476562 41.472656 86.945312 41.445312 87.386719 41.480469 C 87.828125 41.515625 88.210938 41.625 88.535156 41.804688 Z M 88.535156 41.804688 "/>
<path style=" stroke:none;fill-rule:nonzero;fill:rgb(100%,100%,100%);fill-opacity:1;" d="M 92.242188 44.59375 C 92.726562 44.976562 93.058594 45.351562 93.234375 45.722656 C 93.414062 46.09375 93.4375 46.492188 93.308594 46.914062 C 93.175781 47.339844 92.898438 47.816406 92.476562 48.351562 C 92.054688 48.886719 91.652344 49.269531 91.265625 49.492188 C 90.882812 49.71875 90.492188 49.789062 90.085938 49.703125 C 89.683594 49.617188 89.238281 49.386719 88.753906 49.003906 C 88.273438 48.628906 87.941406 48.253906 87.765625 47.882812 C 87.585938 47.511719 87.5625 47.113281 87.691406 46.6875 C 87.816406 46.261719 88.089844 45.777344 88.511719 45.246094 C 88.9375 44.710938 89.34375 44.332031 89.730469 44.109375 C 90.113281 43.886719 90.507812 43.816406 90.914062 43.902344 C 91.316406 43.988281 91.761719 44.21875 92.242188 44.59375 Z M 91.75 45.214844 C 91.445312 44.972656 91.164062 44.832031 90.914062 44.789062 C 90.660156 44.746094 90.410156 44.8125 90.152344 44.984375 C 89.894531 45.152344 89.605469 45.441406 89.285156 45.847656 C 88.960938 46.257812 88.746094 46.605469 88.640625 46.894531 C 88.53125 47.183594 88.527344 47.445312 88.628906 47.675781 C 88.730469 47.910156 88.9375 48.144531 89.242188 48.382812 C 89.546875 48.625 89.828125 48.765625 90.082031 48.816406 C 90.335938 48.859375 90.589844 48.796875 90.84375 48.625 C 91.101562 48.457031 91.394531 48.164062 91.714844 47.757812 C 92.039062 47.347656 92.253906 47 92.359375 46.710938 C 92.464844 46.425781 92.46875 46.164062 92.363281 45.929688 C 92.257812 45.691406 92.054688 45.453125 91.75 45.214844 Z M 91.75 45.214844 "/>
<path style=" stroke:none;fill-rule:nonzero;fill:rgb(100%,100%,100%);fill-opacity:1;" d="M 98.445312 51.054688 L 99.089844 51.804688 L 93.921875 53.652344 C 93.84375 53.679688 93.773438 53.683594 93.707031 53.664062 C 93.640625 53.652344 93.582031 53.613281 93.527344 53.550781 L 92.976562 52.914062 C 92.929688 52.855469 92.902344 52.792969 92.894531 52.722656 C 92.886719 52.652344 92.898438 52.582031 92.9375 52.511719 L 95.550781 47.699219 L 96.203125 48.457031 L 94.21875 51.894531 C 94.140625 52.039062 94.054688 52.179688 93.964844 52.324219 C 93.875 52.46875 93.792969 52.609375 93.714844 52.742188 L 93.808594 52.847656 C 93.964844 52.792969 94.121094 52.734375 94.277344 52.671875 C 94.433594 52.613281 94.585938 52.554688 94.734375 52.496094 Z M 98.445312 51.054688 "/>
<path style=" stroke:none;fill-rule:nonzero;fill:rgb(100%,100%,100%);fill-opacity:1;" d="M 102.253906 56.945312 L 102.765625 57.8125 L 96.796875 58.828125 C 96.550781 58.871094 96.292969 58.890625 96.03125 58.894531 C 95.769531 58.894531 95.507812 58.859375 95.253906 58.796875 C 94.996094 58.730469 94.753906 58.617188 94.523438 58.460938 C 94.296875 58.300781 94.089844 58.082031 93.910156 57.808594 L 94.394531 57.417969 C 94.734375 57.722656 95.066406 57.914062 95.386719 58 C 95.710938 58.082031 96.050781 58.097656 96.414062 58.046875 L 97.097656 57.953125 C 97.253906 57.925781 97.421875 57.894531 97.605469 57.855469 C 97.789062 57.820312 97.953125 57.789062 98.097656 57.761719 Z M 100.023438 53.164062 L 100.53125 54.023438 L 97.804688 57.261719 C 97.726562 57.347656 97.652344 57.433594 97.578125 57.515625 C 97.503906 57.601562 97.425781 57.683594 97.339844 57.757812 L 97.46875 57.976562 L 96.695312 58.070312 L 96.550781 57.824219 C 96.515625 57.761719 96.5 57.695312 96.507812 57.617188 C 96.511719 57.539062 96.539062 57.472656 96.589844 57.417969 Z M 100.023438 53.164062 "/>
<path style=" stroke:none;fill-rule:nonzero;fill:rgb(100%,100%,100%);fill-opacity:1;" d="M 104.671875 62.160156 C 104.8125 62.53125 104.886719 62.863281 104.882812 63.15625 C 104.882812 63.453125 104.789062 63.707031 104.605469 63.925781 C 104.421875 64.144531 104.128906 64.328125 103.722656 64.484375 L 100.191406 65.824219 L 99.929688 65.140625 L 100.96875 64.589844 L 101.058594 64.484375 L 103.382812 63.601562 C 103.695312 63.484375 103.890625 63.332031 103.96875 63.140625 C 104.046875 62.949219 104.011719 62.65625 103.863281 62.261719 C 103.761719 62 103.621094 61.679688 103.441406 61.296875 C 103.265625 60.914062 103.089844 60.539062 102.910156 60.167969 L 103.527344 59.839844 C 103.65625 60.054688 103.789062 60.296875 103.929688 60.558594 C 104.070312 60.824219 104.203125 61.097656 104.335938 61.375 C 104.464844 61.652344 104.578125 61.917969 104.671875 62.160156 Z M 102.144531 61.691406 L 103.121094 64.242188 L 102.460938 64.484375 L 101.535156 62.097656 C 101.4375 61.859375 101.308594 61.714844 101.148438 61.667969 C 100.996094 61.617188 100.8125 61.632812 100.597656 61.714844 L 100.28125 61.832031 C 100.019531 61.933594 99.851562 62.066406 99.777344 62.238281 C 99.707031 62.40625 99.722656 62.628906 99.828125 62.898438 C 99.902344 63.089844 100.019531 63.292969 100.183594 63.507812 C 100.351562 63.726562 100.554688 63.925781 100.800781 64.113281 C 101.042969 64.304688 101.324219 64.457031 101.636719 64.570312 L 100.984375 64.820312 C 100.859375 64.78125 100.707031 64.714844 100.527344 64.625 C 100.347656 64.53125 100.160156 64.410156 99.96875 64.261719 C 99.769531 64.113281 99.589844 63.933594 99.421875 63.726562 C 99.25 63.523438 99.113281 63.285156 99.007812 63.011719 C 98.894531 62.71875 98.847656 62.4375 98.867188 62.171875 C 98.890625 61.90625 98.980469 61.671875 99.140625 61.460938 C 99.300781 61.257812 99.53125 61.097656 99.835938 60.980469 L 100.382812 60.773438 C 100.773438 60.625 101.121094 60.632812 101.429688 60.796875 C 101.738281 60.957031 101.976562 61.253906 102.144531 61.691406 Z M 102.144531 61.691406 "/>
<path style=" stroke:none;fill-rule:nonzero;fill:rgb(100%,100%,100%);fill-opacity:1;" d="M 29.367188 75.488281 C 29.367188 75 29.761719 74.609375 30.25 74.609375 C 30.738281 74.609375 31.132812 75 31.132812 75.488281 C 31.132812 75.972656 30.738281 76.367188 30.25 76.367188 C 29.761719 76.367188 29.367188 75.972656 29.367188 75.488281 Z M 29.367188 75.488281 "/>
<path style=" stroke:none;fill-rule:nonzero;fill:rgb(100%,100%,100%);fill-opacity:1;" d="M 103.277344 75.488281 C 103.277344 75 103.671875 74.609375 104.160156 74.609375 C 104.648438 74.609375 105.042969 75 105.042969 75.488281 C 105.042969 75.972656 104.648438 76.367188 104.160156 76.367188 C 103.671875 76.367188 103.277344 75.972656 103.277344 75.488281 Z M 103.277344 75.488281 "/>
<path style=" stroke:none;fill-rule:nonzero;fill:rgb(100%,100%,100%);fill-opacity:1;" d="M 36.617188 90.378906 L 36.964844 91.296875 L 30.96875 92.113281 L 30.476562 90.808594 L 34.765625 88.109375 L 29.742188 88.855469 L 29.261719 87.582031 L 34.300781 84.234375 L 34.660156 85.191406 L 30.183594 87.996094 L 35.445312 87.269531 L 35.851562 88.34375 L 31.390625 91.191406 Z M 36.617188 90.378906 "/>
<path style=" stroke:none;fill-rule:nonzero;fill:rgb(100%,100%,100%);fill-opacity:1;" d="M 43.703125 103.957031 C 43.585938 104.078125 43.457031 104.199219 43.324219 104.316406 L 40.636719 101.691406 C 40.214844 102.183594 39.996094 102.640625 39.984375 103.058594 C 39.972656 103.472656 40.128906 103.835938 40.449219 104.148438 C 40.648438 104.34375 40.863281 104.496094 41.09375 104.605469 C 41.320312 104.714844 41.589844 104.796875 41.902344 104.847656 L 41.792969 105.597656 C 41 105.511719 40.335938 105.210938 39.804688 104.6875 C 39.21875 104.113281 38.949219 103.476562 39 102.777344 C 39.046875 102.078125 39.398438 101.390625 40.058594 100.722656 C 40.488281 100.285156 40.9375 99.96875 41.410156 99.769531 C 41.882812 99.574219 42.34375 99.507812 42.796875 99.570312 C 43.25 99.640625 43.652344 99.847656 44.007812 100.195312 C 44.566406 100.742188 44.816406 101.34375 44.753906 102 C 44.691406 102.65625 44.34375 103.308594 43.703125 103.957031 Z M 43.144531 103.082031 L 43.191406 103.03125 C 43.597656 102.621094 43.824219 102.222656 43.875 101.84375 C 43.921875 101.464844 43.78125 101.117188 43.453125 100.792969 C 42.851562 100.207031 42.089844 100.324219 41.167969 101.152344 Z M 43.144531 103.082031 "/>
<path style=" stroke:none;fill-rule:nonzero;fill:rgb(100%,100%,100%);fill-opacity:1;" d="M 52.976562 112.988281 C 52.625 112.84375 52.390625 112.625 52.273438 112.332031 C 52.160156 112.039062 52.179688 111.703125 52.339844 111.328125 L 55.066406 104.789062 L 56.0625 105.070312 L 53.296875 111.699219 C 53.234375 111.851562 53.214844 111.96875 53.238281 112.058594 C 53.261719 112.148438 53.335938 112.21875 53.460938 112.269531 C 53.589844 112.324219 53.714844 112.351562 53.832031 112.351562 L 53.808594 113.117188 C 53.527344 113.144531 53.25 113.101562 52.976562 112.988281 Z M 52.976562 112.988281 "/>
<g clip-path="url(#clip5)" clip-rule="nonzero">
<path style=" stroke:none;fill-rule:nonzero;fill:rgb(100%,100%,100%);fill-opacity:1;" d="M 68.242188 109.398438 C 68.78125 109.410156 69.195312 109.574219 69.492188 109.898438 C 69.789062 110.222656 69.933594 110.664062 69.921875 111.222656 L 69.855469 115.433594 L 68.824219 115.417969 L 68.890625 111.347656 C 68.898438 110.933594 68.828125 110.636719 68.671875 110.464844 C 68.519531 110.292969 68.289062 110.203125 67.984375 110.199219 C 67.667969 110.191406 67.390625 110.277344 67.152344 110.453125 C 66.910156 110.625 66.679688 110.878906 66.464844 111.210938 L 66.394531 115.378906 L 65.367188 115.359375 L 65.464844 109.488281 L 66.347656 109.5 L 66.425781 110.371094 C 66.636719 110.0625 66.902344 109.820312 67.214844 109.648438 C 67.527344 109.476562 67.871094 109.394531 68.242188 109.398438 Z M 68.242188 109.398438 "/>
</g>
<path style=" stroke:none;fill-rule:nonzero;fill:rgb(100%,100%,100%);fill-opacity:1;" d="M 85.03125 107.808594 C 85.101562 107.964844 85.167969 108.125 85.226562 108.292969 L 81.796875 109.824219 C 82.101562 110.398438 82.449219 110.765625 82.835938 110.929688 C 83.21875 111.089844 83.613281 111.082031 84.023438 110.898438 C 84.277344 110.78125 84.5 110.636719 84.6875 110.464844 C 84.871094 110.292969 85.042969 110.074219 85.207031 109.804688 L 85.867188 110.179688 C 85.5 110.882812 84.972656 111.386719 84.292969 111.691406 C 83.542969 112.027344 82.847656 112.042969 82.214844 111.742188 C 81.574219 111.441406 81.0625 110.863281 80.675781 110.007812 C 80.425781 109.453125 80.292969 108.917969 80.28125 108.410156 C 80.265625 107.898438 80.375 107.445312 80.601562 107.050781 C 80.828125 106.65625 81.171875 106.359375 81.625 106.15625 C 82.339844 105.835938 82.992188 105.824219 83.585938 106.121094 C 84.175781 106.417969 84.660156 106.980469 85.03125 107.808594 Z M 84.007812 108.007812 L 83.980469 107.949219 C 83.742188 107.417969 83.453125 107.0625 83.117188 106.878906 C 82.78125 106.695312 82.40625 106.699219 81.984375 106.886719 C 81.210938 107.230469 81.046875 107.980469 81.484375 109.136719 Z M 84.007812 108.007812 "/>
<path style=" stroke:none;fill-rule:nonzero;fill:rgb(100%,100%,100%);fill-opacity:1;" d="M 92.578125 97.957031 C 92.847656 97.660156 93.132812 97.429688 93.429688 97.265625 C 93.726562 97.101562 94.058594 96.988281 94.414062 96.921875 L 94.609375 97.679688 C 94.300781 97.761719 94.035156 97.867188 93.8125 97.988281 C 93.589844 98.117188 93.390625 98.277344 93.210938 98.476562 C 92.984375 98.726562 92.855469 98.96875 92.828125 99.203125 C 92.800781 99.4375 92.878906 99.636719 93.054688 99.796875 C 93.234375 99.953125 93.433594 100.011719 93.652344 99.964844 C 93.875 99.917969 94.195312 99.761719 94.609375 99.492188 C 95.171875 99.117188 95.664062 98.902344 96.097656 98.851562 C 96.523438 98.796875 96.917969 98.9375 97.285156 99.265625 C 97.714844 99.652344 97.894531 100.113281 97.824219 100.652344 C 97.746094 101.191406 97.492188 101.699219 97.054688 102.179688 C 96.457031 102.84375 95.765625 103.222656 94.992188 103.316406 L 94.894531 102.488281 C 95.511719 102.375 96.023438 102.09375 96.429688 101.644531 C 96.6875 101.359375 96.832031 101.078125 96.867188 100.804688 C 96.898438 100.527344 96.8125 100.300781 96.605469 100.113281 C 96.457031 99.980469 96.308594 99.902344 96.164062 99.878906 C 96.015625 99.859375 95.839844 99.890625 95.636719 99.980469 C 95.433594 100.066406 95.160156 100.21875 94.824219 100.433594 C 94.285156 100.789062 93.816406 100.976562 93.425781 101 C 93.03125 101.023438 92.675781 100.894531 92.359375 100.613281 C 92.132812 100.410156 91.988281 100.15625 91.925781 99.855469 C 91.859375 99.550781 91.886719 99.234375 92.003906 98.902344 C 92.117188 98.570312 92.308594 98.253906 92.578125 97.957031 Z M 92.578125 97.957031 "/>
<path style=" stroke:none;fill-rule:nonzero;fill:rgb(100%,100%,100%);fill-opacity:1;" d="M 99.238281 86.464844 C 99.371094 86.085938 99.542969 85.765625 99.753906 85.5 C 99.96875 85.234375 100.226562 85.003906 100.53125 84.800781 L 101.003906 85.425781 C 100.753906 85.621094 100.546875 85.820312 100.390625 86.019531 C 100.234375 86.21875 100.113281 86.449219 100.023438 86.699219 C 99.910156 87.019531 99.886719 87.289062 99.953125 87.515625 C 100.019531 87.746094 100.164062 87.898438 100.390625 87.976562 C 100.617188 88.054688 100.820312 88.03125 101.007812 87.902344 C 101.195312 87.777344 101.429688 87.507812 101.707031 87.097656 C 102.078125 86.535156 102.453125 86.148438 102.828125 85.933594 C 103.203125 85.722656 103.621094 85.699219 104.085938 85.859375 C 104.636719 86.050781 104.980469 86.410156 105.121094 86.933594 C 105.261719 87.460938 105.222656 88.027344 105.007812 88.640625 C 104.710938 89.480469 104.222656 90.097656 103.542969 90.480469 L 103.132812 89.753906 C 103.65625 89.414062 104.019531 88.957031 104.21875 88.386719 C 104.347656 88.023438 104.375 87.707031 104.296875 87.441406 C 104.222656 87.175781 104.050781 86.996094 103.789062 86.90625 C 103.601562 86.839844 103.433594 86.824219 103.292969 86.859375 C 103.148438 86.894531 103 86.996094 102.84375 87.152344 C 102.691406 87.3125 102.5 87.558594 102.269531 87.886719 C 101.910156 88.421875 101.554688 88.773438 101.199219 88.945312 C 100.84375 89.121094 100.46875 89.136719 100.070312 89 C 99.777344 88.898438 99.546875 88.71875 99.371094 88.464844 C 99.195312 88.210938 99.097656 87.90625 99.074219 87.558594 C 99.050781 87.207031 99.105469 86.84375 99.238281 86.464844 Z M 99.238281 86.464844 "/>
</g>
</svg>
