<?xml version="1.0" encoding="UTF-8"?>
<svg xmlns="http://www.w3.org/2000/svg" xmlns:xlink="http://www.w3.org/1999/xlink" width="200px" height="150px" viewBox="0 0 200 150" version="1.1">
<defs>
<clipPath id="clip1">
  <path d="M 55.554688 30 L 144.445312 30 L 144.445312 120 L 55.554688 120 Z M 55.554688 30 "/>
</clipPath>
<clipPath id="clip2">
  <path d="M 83.8125 58.8125 L 116.1875 58.8125 L 116.1875 91.1875 L 83.8125 91.1875 Z M 83.8125 58.8125 "/>
</clipPath>
<clipPath id="clip3">
  <path d="M 96 63.667969 L 104 63.667969 L 104 70 L 96 70 Z M 96 63.667969 "/>
</clipPath>
<clipPath id="clip4">
  <path d="M 89 70 L 111 70 L 111 86.332031 L 89 86.332031 Z M 89 70 "/>
</clipPath>
<clipPath id="clip5">
  <path d="M 98 47.527344 L 102 47.527344 L 102 53 L 98 53 Z M 98 47.527344 "/>
</clipPath>
<clipPath id="clip6">
  <path d="M 99 98 L 103 98 L 103 102.472656 L 99 102.472656 Z M 99 98 "/>
</clipPath>
</defs>
<g id="surface1">
<rect x="0" y="0" width="200" height="150" style="fill:rgb(22.352941%,80%,80%);fill-opacity:1;stroke:none;"/>
<g clip-path="url(#clip1)" clip-rule="nonzero">
<path style=" stroke:none;fill-rule:nonzero;fill:rgb(100%,100%,100%);fill-opacity:1;" d="M 144.445312 81.707031 C 144.421875 79.363281 142.941406 77.503906 142.917969 75.160156 C 142.90625 72.816406 144.367188 69.984375 144.34375 67.640625 C 143.605469 65.417969 141.613281 64.113281 140.871094 61.890625 C 140.132812 59.667969 140.640625 56.515625 139.910156 54.292969 C 138.515625 52.402344 136.21875 51.78125 134.835938 49.902344 C 133.441406 48.011719 132.953125 44.859375 131.574219 42.980469 C 129.671875 41.621094 127.292969 41.730469 125.378906 40.371094 C 123.476562 39.011719 122.039062 36.15625 120.125 34.796875 C 117.894531 34.089844 115.671875 34.941406 113.4375 34.222656 C 111.203125 33.515625 108.957031 31.246094 106.722656 30.539062 C 104.378906 30.5625 102.519531 32.042969 100.175781 32.066406 C 97.832031 32.074219 95 30.617188 92.65625 30.636719 C 90.433594 31.378906 89.128906 33.371094 86.90625 34.109375 C 84.683594 34.851562 81.53125 34.34375 79.308594 35.085938 C 77.417969 36.476562 76.800781 38.777344 74.917969 40.160156 C 73.027344 41.554688 69.875 42.039062 67.996094 43.433594 C 66.636719 45.335938 66.746094 47.714844 65.386719 49.625 C 64.027344 51.527344 61.171875 52.964844 59.8125 54.878906 C 59.105469 57.113281 59.945312 59.335938 59.238281 61.570312 C 58.53125 63.804688 56.261719 66.046875 55.554688 68.28125 C 55.566406 70.625 57.058594 72.484375 57.082031 74.828125 C 57.09375 77.171875 55.632812 80.003906 55.65625 82.347656 C 56.394531 84.570312 58.386719 85.875 59.128906 88.097656 C 59.867188 90.320312 59.359375 93.472656 60.101562 95.695312 C 61.492188 97.585938 63.792969 98.207031 65.175781 100.097656 C 66.570312 101.988281 67.054688 105.140625 68.4375 107.019531 C 70.339844 108.378906 72.71875 108.269531 74.632812 109.628906 C 76.535156 110.992188 77.972656 113.84375 79.882812 115.203125 C 82.117188 115.910156 84.339844 115.070312 86.574219 115.777344 C 88.808594 116.488281 91.054688 118.753906 93.289062 119.460938 C 95.632812 119.4375 97.488281 117.957031 99.835938 117.933594 C 102.179688 117.925781 105.007812 119.382812 107.355469 119.363281 C 109.578125 118.621094 110.882812 116.628906 113.105469 115.890625 C 115.328125 115.148438 118.480469 115.65625 120.703125 114.917969 C 122.59375 113.523438 123.210938 111.222656 125.101562 109.839844 C 126.996094 108.445312 130.144531 107.960938 132.027344 106.578125 C 133.386719 104.675781 133.277344 102.296875 134.636719 100.386719 C 135.996094 98.484375 138.847656 97.046875 140.210938 95.132812 C 140.917969 92.898438 140.078125 90.675781 140.785156 88.441406 C 141.46875 86.1875 143.738281 83.941406 144.445312 81.707031 Z M 140.550781 88.164062 C 139.546875 90.144531 137.078125 91.902344 136.0625 93.882812 C 135.054688 95.863281 135.5 98.074219 134.492188 100.054688 C 132.921875 101.625 130.035156 102.53125 128.453125 104.101562 C 126.882812 105.671875 126.628906 107.917969 125.046875 109.488281 C 123.070312 110.492188 120.039062 110.460938 118.058594 111.476562 C 116.078125 112.484375 115.140625 114.539062 113.160156 115.546875 C 110.960938 115.890625 108.09375 114.925781 105.894531 115.269531 C 103.695312 115.613281 102.167969 117.28125 99.976562 117.625 C 97.777344 117.28125 95.355469 115.46875 93.15625 115.125 C 90.953125 114.773438 88.996094 115.890625 86.796875 115.535156 C 84.816406 114.527344 83.058594 112.050781 81.078125 111.046875 C 79.097656 110.039062 76.886719 110.480469 74.898438 109.476562 C 73.328125 107.90625 72.421875 105.019531 70.851562 103.4375 C 69.28125 101.867188 67.035156 101.601562 65.464844 100.03125 C 64.457031 98.050781 64.492188 95.023438 63.472656 93.042969 C 62.46875 91.0625 60.410156 90.121094 59.402344 88.144531 C 59.0625 85.941406 60.023438 83.078125 59.679688 80.878906 C 59.328125 78.675781 57.667969 77.152344 57.324219 74.960938 C 57.679688 72.761719 59.480469 70.339844 59.824219 68.136719 C 60.167969 65.9375 59.0625 63.980469 59.414062 61.78125 C 60.421875 59.800781 62.898438 58.042969 63.90625 56.0625 C 64.910156 54.082031 64.46875 51.871094 65.476562 49.878906 C 67.046875 48.308594 69.933594 47.402344 71.511719 45.832031 C 73.082031 44.261719 73.347656 42.019531 74.917969 40.449219 C 76.898438 39.441406 79.929688 39.472656 81.910156 38.457031 C 83.886719 37.449219 84.828125 35.394531 86.808594 34.386719 C 89.007812 34.042969 91.871094 35.007812 94.074219 34.664062 C 96.273438 34.320312 97.800781 32.652344 99.988281 32.308594 C 102.191406 32.652344 104.613281 34.464844 106.8125 34.808594 C 109.011719 35.160156 110.96875 34.042969 113.171875 34.398438 C 115.152344 35.40625 116.910156 37.882812 118.886719 38.886719 C 120.867188 39.894531 123.078125 39.453125 125.070312 40.457031 C 126.640625 42.027344 127.546875 44.914062 129.117188 46.496094 C 130.6875 48.066406 132.933594 48.332031 134.503906 49.902344 C 135.507812 51.882812 135.476562 54.914062 136.492188 56.890625 C 137.5 58.871094 139.558594 59.8125 140.5625 61.789062 C 140.917969 63.992188 139.945312 66.855469 140.285156 69.054688 C 140.628906 71.257812 142.300781 72.78125 142.640625 74.972656 C 142.300781 77.171875 140.484375 79.59375 140.144531 81.796875 C 139.800781 83.996094 140.90625 85.964844 140.550781 88.164062 Z M 140.550781 88.164062 "/>
</g>
<g clip-path="url(#clip2)" clip-rule="nonzero">
<path style=" stroke:none;fill-rule:nonzero;fill:rgb(100%,100%,100%);fill-opacity:1;" d="M 116.109375 75 C 116.109375 83.898438 108.898438 91.109375 100 91.109375 C 91.101562 91.109375 83.890625 83.898438 83.890625 75 C 83.890625 66.101562 91.101562 58.890625 100 58.890625 C 108.898438 58.890625 116.109375 66.101562 116.109375 75 Z M 116.109375 75 "/>
</g>
<g clip-path="url(#clip3)" clip-rule="nonzero">
<path style=" stroke:none;fill-rule:nonzero;fill:rgb(22.352941%,80%,80%);fill-opacity:1;" d="M 103.007812 66.675781 C 103.007812 68.335938 101.660156 69.679688 100 69.679688 C 98.339844 69.679688 96.992188 68.335938 96.992188 66.675781 C 96.992188 65.015625 98.339844 63.667969 100 63.667969 C 101.660156 63.667969 103.007812 65.015625 103.007812 66.675781 Z M 103.007812 66.675781 "/>
</g>
<g clip-path="url(#clip4)" clip-rule="nonzero">
<path style=" stroke:none;fill-rule:nonzero;fill:rgb(22.352941%,80%,80%);fill-opacity:1;" d="M 100 85.351562 L 107.0625 86.3125 C 108.019531 86.441406 108.929688 85.871094 109.230469 84.957031 C 109.535156 84.039062 109.136719 83.039062 108.289062 82.578125 L 103.339844 79.878906 L 103.582031 76.03125 L 104.640625 78.300781 C 104.714844 78.457031 104.816406 78.601562 104.9375 78.726562 L 108.273438 82.058594 C 108.566406 82.351562 108.949219 82.5 109.332031 82.5 C 109.714844 82.5 110.097656 82.351562 110.390625 82.058594 C 110.976562 81.472656 110.976562 80.523438 110.390625 79.9375 L 107.246094 76.792969 L 105.21875 72.414062 C 104.667969 71.304688 103.863281 70.605469 102.667969 70.605469 L 97.332031 70.605469 C 96.136719 70.605469 95.335938 71.304688 94.78125 72.414062 L 92.753906 76.777344 L 89.609375 79.929688 C 89.023438 80.515625 89.023438 81.46875 89.609375 82.054688 C 89.902344 82.347656 90.285156 82.496094 90.667969 82.496094 C 91.050781 82.496094 91.4375 82.351562 91.730469 82.058594 L 95.0625 78.726562 C 95.183594 78.601562 95.285156 78.457031 95.359375 78.300781 L 96.417969 76.03125 L 96.660156 79.878906 L 91.710938 82.578125 C 90.863281 83.039062 90.46875 84.039062 90.769531 84.957031 C 91.070312 85.871094 91.980469 86.441406 92.9375 86.3125 Z M 100 85.351562 "/>
</g>
<path style=" stroke:none;fill-rule:nonzero;fill:rgb(100%,100%,100%);fill-opacity:1;" d="M 74.152344 66.289062 L 74.378906 65.652344 C 74.402344 65.597656 74.433594 65.554688 74.476562 65.523438 C 74.523438 65.492188 74.574219 65.480469 74.628906 65.484375 L 79.796875 65.613281 L 79.570312 66.242188 L 75.203125 66.066406 C 75.132812 66.0625 75.058594 66.058594 74.984375 66.054688 C 74.910156 66.050781 74.839844 66.046875 74.769531 66.042969 L 74.699219 66.238281 C 74.753906 66.277344 74.8125 66.320312 74.871094 66.359375 C 74.933594 66.40625 74.992188 66.449219 75.046875 66.496094 L 78.519531 69.148438 L 78.292969 69.777344 L 74.234375 66.578125 C 74.191406 66.542969 74.160156 66.503906 74.140625 66.453125 C 74.128906 66.398438 74.128906 66.34375 74.152344 66.289062 Z M 76.582031 68.183594 L 77.457031 65.761719 L 77.984375 65.949219 L 77.109375 68.375 Z M 76.582031 68.183594 "/>
<path style=" stroke:none;fill-rule:nonzero;fill:rgb(100%,100%,100%);fill-opacity:1;" d="M 79.664062 64.8125 L 78.597656 61.523438 L 78.953125 60.921875 L 80.023438 64.210938 Z M 79.664062 64.8125 L 81.183594 62.1875 L 81.621094 62.441406 L 80.105469 65.066406 Z M 77.011719 63.253906 L 78.507812 60.664062 L 78.953125 60.921875 L 77.457031 63.507812 Z M 77.011719 63.253906 "/>
<path style=" stroke:none;fill-rule:nonzero;fill:rgb(100%,100%,100%);fill-opacity:1;" d="M 80.777344 57.71875 C 81.0625 57.378906 81.382812 57.222656 81.738281 57.246094 C 82.09375 57.269531 82.527344 57.5 83.042969 57.933594 C 83.277344 58.132812 83.46875 58.328125 83.613281 58.519531 C 83.761719 58.710938 83.859375 58.90625 83.902344 59.101562 C 83.945312 59.292969 83.933594 59.496094 83.863281 59.703125 C 83.792969 59.910156 83.660156 60.132812 83.460938 60.371094 C 83.382812 60.464844 83.292969 60.5625 83.195312 60.664062 C 83.09375 60.765625 82.988281 60.867188 82.875 60.964844 C 82.765625 61.0625 82.652344 61.152344 82.535156 61.242188 C 82.421875 61.328125 82.308594 61.402344 82.199219 61.460938 L 82.195312 60.804688 C 82.3125 60.730469 82.421875 60.648438 82.523438 60.566406 C 82.625 60.484375 82.722656 60.394531 82.808594 60.304688 C 82.894531 60.214844 82.976562 60.125 83.046875 60.039062 C 83.191406 59.859375 83.277344 59.691406 83.304688 59.527344 C 83.332031 59.367188 83.289062 59.199219 83.175781 59.023438 C 83.066406 58.84375 82.882812 58.648438 82.625 58.429688 C 82.371094 58.214844 82.15625 58.066406 81.976562 57.980469 C 81.796875 57.890625 81.632812 57.867188 81.488281 57.910156 C 81.34375 57.953125 81.199219 58.0625 81.050781 58.234375 C 80.921875 58.386719 80.84375 58.5625 80.808594 58.765625 C 80.777344 58.96875 80.753906 59.21875 80.746094 59.511719 L 80.394531 59.273438 C 80.371094 59.0625 80.367188 58.859375 80.386719 58.675781 C 80.40625 58.488281 80.449219 58.3125 80.515625 58.152344 C 80.582031 57.988281 80.667969 57.84375 80.777344 57.71875 Z M 78.394531 58.246094 L 78.796875 57.769531 L 79.816406 58.632812 C 79.933594 58.734375 80.039062 58.824219 80.132812 58.914062 C 80.226562 59.003906 80.3125 59.101562 80.394531 59.207031 L 80.515625 59.226562 L 82.625 61.003906 L 82.199219 61.460938 Z M 78.394531 58.246094 "/>
<path style=" stroke:none;fill-rule:nonzero;fill:rgb(100%,100%,100%);fill-opacity:1;" d="M 83.039062 55.601562 L 83.527344 55.207031 L 85.113281 57.160156 C 85.25 57.339844 85.382812 57.4375 85.511719 57.453125 C 85.636719 57.472656 85.78125 57.414062 85.941406 57.285156 C 86.097656 57.15625 86.222656 56.992188 86.316406 56.792969 C 86.410156 56.59375 86.511719 56.335938 86.613281 56.019531 L 86.949219 56.304688 C 86.871094 56.652344 86.765625 56.953125 86.632812 57.207031 C 86.5 57.457031 86.328125 57.671875 86.117188 57.839844 C 85.613281 58.253906 85.152344 58.203125 84.738281 57.695312 Z M 84.9375 54.0625 L 85.425781 53.664062 L 87.683594 56.449219 L 87.292969 56.765625 L 86.820312 56.277344 L 86.699219 56.234375 Z M 84.9375 54.0625 "/>
<path style=" stroke:none;fill-rule:nonzero;fill:rgb(100%,100%,100%);fill-opacity:1;" d="M 89.089844 51.609375 L 89.730469 51.265625 L 89.363281 52.957031 C 89.351562 53.011719 89.339844 53.074219 89.316406 53.136719 C 89.292969 53.199219 89.273438 53.25 89.253906 53.289062 L 89.261719 53.304688 C 89.304688 53.308594 89.359375 53.324219 89.429688 53.347656 C 89.5 53.375 89.5625 53.40625 89.617188 53.4375 L 91.53125 54.367188 L 90.886719 54.710938 L 88.664062 53.574219 Z M 86.410156 51.265625 L 86.960938 50.96875 L 88.046875 52.984375 C 88.121094 53.117188 88.179688 53.246094 88.230469 53.363281 C 88.28125 53.488281 88.332031 53.617188 88.378906 53.753906 C 88.464844 53.863281 88.542969 53.976562 88.617188 54.089844 C 88.691406 54.207031 88.757812 54.324219 88.820312 54.4375 L 89.394531 55.511719 L 88.84375 55.808594 Z M 88.136719 53.628906 L 88.871094 53.238281 L 89.085938 53.640625 L 88.351562 54.035156 Z M 88.136719 53.628906 "/>
<path style=" stroke:none;fill-rule:nonzero;fill:rgb(100%,100%,100%);fill-opacity:1;" d="M 92.855469 50.085938 C 93.109375 50.003906 93.335938 49.964844 93.53125 49.976562 C 93.730469 49.988281 93.898438 50.058594 94.039062 50.1875 C 94.175781 50.316406 94.292969 50.519531 94.382812 50.792969 L 95.171875 53.191406 L 94.707031 53.347656 L 94.371094 52.636719 L 94.300781 52.574219 L 93.78125 50.992188 C 93.710938 50.78125 93.617188 50.644531 93.492188 50.585938 C 93.363281 50.527344 93.167969 50.542969 92.898438 50.628906 C 92.722656 50.6875 92.5 50.773438 92.238281 50.878906 C 91.976562 50.984375 91.71875 51.09375 91.464844 51.199219 L 91.265625 50.777344 C 91.414062 50.699219 91.578125 50.617188 91.757812 50.53125 C 91.941406 50.445312 92.128906 50.363281 92.316406 50.285156 C 92.511719 50.207031 92.691406 50.140625 92.855469 50.085938 Z M 92.464844 51.757812 L 94.203125 51.1875 L 94.34375 51.636719 L 92.714844 52.175781 C 92.554688 52.238281 92.453125 52.316406 92.414062 52.421875 C 92.378906 52.523438 92.382812 52.648438 92.429688 52.792969 L 92.5 53.007812 C 92.558594 53.183594 92.644531 53.300781 92.753906 53.355469 C 92.867188 53.410156 93.015625 53.40625 93.199219 53.34375 C 93.332031 53.300781 93.46875 53.226562 93.621094 53.125 C 93.769531 53.019531 93.910156 52.890625 94.046875 52.734375 C 94.179688 52.574219 94.292969 52.394531 94.378906 52.1875 L 94.523438 52.632812 C 94.492188 52.714844 94.445312 52.8125 94.378906 52.929688 C 94.3125 53.046875 94.222656 53.167969 94.117188 53.292969 C 94.011719 53.417969 93.886719 53.535156 93.742188 53.640625 C 93.601562 53.75 93.4375 53.832031 93.25 53.894531 C 93.050781 53.960938 92.859375 53.984375 92.683594 53.960938 C 92.503906 53.941406 92.351562 53.871094 92.214844 53.757812 C 92.082031 53.644531 91.980469 53.484375 91.914062 53.277344 L 91.792969 52.90625 C 91.703125 52.640625 91.722656 52.410156 91.839844 52.207031 C 91.957031 52.007812 92.164062 51.855469 92.464844 51.757812 Z M 92.464844 51.757812 "/>
<g clip-path="url(#clip5)" clip-rule="nonzero">
<path style=" stroke:none;fill-rule:nonzero;fill:rgb(100%,100%,100%);fill-opacity:1;" d="M 98.183594 52.183594 L 100.738281 48.097656 L 101.445312 48.078125 L 98.902344 52.164062 Z M 98.183594 52.183594 L 101.652344 52.050781 L 101.671875 52.601562 L 98.207031 52.738281 Z M 98.054688 47.65625 L 101.425781 47.527344 L 101.445312 48.078125 L 98.074219 48.210938 Z M 98.054688 47.65625 "/>
</g>
<path style=" stroke:none;fill-rule:nonzero;fill:rgb(100%,100%,100%);fill-opacity:1;" d="M 104.480469 49.289062 C 104.714844 49.324219 104.941406 49.386719 105.160156 49.480469 C 105.378906 49.574219 105.585938 49.699219 105.773438 49.855469 L 105.679688 50.238281 C 105.464844 50.136719 105.269531 50.054688 105.101562 49.988281 C 104.933594 49.921875 104.75 49.875 104.546875 49.847656 C 104.34375 49.816406 104.175781 49.828125 104.042969 49.882812 C 103.90625 49.933594 103.796875 50.050781 103.710938 50.230469 C 103.625 50.414062 103.554688 50.675781 103.503906 51.027344 C 103.453125 51.375 103.441406 51.652344 103.46875 51.855469 C 103.496094 52.058594 103.5625 52.207031 103.675781 52.300781 C 103.785156 52.398438 103.933594 52.457031 104.125 52.484375 C 104.265625 52.507812 104.394531 52.507812 104.515625 52.488281 C 104.632812 52.46875 104.761719 52.429688 104.90625 52.367188 C 105.046875 52.300781 105.210938 52.21875 105.40625 52.117188 L 105.398438 52.5625 C 105.179688 52.714844 104.9375 52.835938 104.667969 52.925781 C 104.402344 53.015625 104.125 53.039062 103.839844 52.996094 C 103.390625 52.929688 103.097656 52.726562 102.949219 52.382812 C 102.808594 52.039062 102.78125 51.558594 102.871094 50.941406 C 102.9375 50.480469 103.039062 50.121094 103.175781 49.867188 C 103.3125 49.609375 103.492188 49.441406 103.707031 49.355469 C 103.921875 49.265625 104.179688 49.242188 104.480469 49.289062 Z M 105.925781 48.003906 L 106.546875 48.097656 L 105.796875 53.195312 L 105.316406 53.125 L 105.335938 52.492188 L 105.277344 52.433594 L 105.632812 50 L 105.695312 49.898438 C 105.695312 49.757812 105.703125 49.625 105.714844 49.496094 C 105.730469 49.371094 105.746094 49.238281 105.765625 49.097656 Z M 105.925781 48.003906 "/>
<path style=" stroke:none;fill-rule:nonzero;fill:rgb(100%,100%,100%);fill-opacity:1;" d="M 109.714844 50.648438 C 110.101562 50.785156 110.394531 50.953125 110.585938 51.152344 C 110.777344 51.351562 110.878906 51.597656 110.886719 51.894531 C 110.894531 52.191406 110.824219 52.554688 110.671875 52.988281 C 110.519531 53.417969 110.347656 53.746094 110.152344 53.972656 C 109.957031 54.195312 109.722656 54.324219 109.449219 54.359375 C 109.175781 54.390625 108.84375 54.335938 108.453125 54.199219 C 108.070312 54.0625 107.78125 53.894531 107.585938 53.699219 C 107.394531 53.5 107.292969 53.25 107.28125 52.953125 C 107.269531 52.65625 107.339844 52.289062 107.496094 51.859375 C 107.648438 51.429688 107.820312 51.101562 108.019531 50.878906 C 108.214844 50.652344 108.449219 50.527344 108.722656 50.492188 C 109 50.460938 109.328125 50.511719 109.714844 50.648438 Z M 109.535156 51.148438 C 109.289062 51.058594 109.082031 51.03125 108.914062 51.058594 C 108.746094 51.082031 108.601562 51.179688 108.476562 51.34375 C 108.347656 51.503906 108.226562 51.75 108.113281 52.078125 C 107.996094 52.410156 107.933594 52.675781 107.929688 52.882812 C 107.921875 53.089844 107.976562 53.253906 108.089844 53.382812 C 108.207031 53.507812 108.386719 53.613281 108.632812 53.699219 C 108.875 53.785156 109.082031 53.816406 109.253906 53.792969 C 109.425781 53.769531 109.574219 53.671875 109.699219 53.507812 C 109.824219 53.347656 109.945312 53.101562 110.0625 52.769531 C 110.179688 52.441406 110.238281 52.175781 110.242188 51.96875 C 110.25 51.761719 110.195312 51.597656 110.078125 51.46875 C 109.960938 51.339844 109.78125 51.234375 109.535156 51.148438 Z M 109.535156 51.148438 "/>
<path style=" stroke:none;fill-rule:nonzero;fill:rgb(100%,100%,100%);fill-opacity:1;" d="M 112.863281 52.121094 L 113.289062 52.355469 L 113.023438 52.996094 L 113.027344 53.117188 L 111.667969 55.558594 L 111.121094 55.253906 Z M 114.726562 53.054688 L 114.867188 53.132812 L 114.519531 53.613281 L 114.335938 53.511719 C 114.152344 53.410156 113.949219 53.34375 113.722656 53.320312 C 113.496094 53.289062 113.210938 53.269531 112.871094 53.261719 L 113.015625 52.894531 C 113.351562 52.835938 113.664062 52.816406 113.960938 52.839844 C 114.253906 52.863281 114.507812 52.933594 114.726562 53.054688 Z M 114.726562 53.054688 "/>
<path style=" stroke:none;fill-rule:nonzero;fill:rgb(100%,100%,100%);fill-opacity:1;" d="M 117.203125 54.929688 C 117.527344 55.183594 117.75 55.4375 117.867188 55.6875 C 117.988281 55.9375 118.003906 56.203125 117.917969 56.488281 C 117.828125 56.769531 117.644531 57.09375 117.359375 57.453125 C 117.078125 57.808594 116.808594 58.066406 116.554688 58.21875 C 116.296875 58.367188 116.035156 58.414062 115.761719 58.359375 C 115.492188 58.300781 115.195312 58.144531 114.871094 57.890625 C 114.550781 57.636719 114.332031 57.386719 114.210938 57.136719 C 114.09375 56.886719 114.074219 56.621094 114.160156 56.332031 C 114.246094 56.046875 114.429688 55.722656 114.710938 55.367188 C 114.996094 55.007812 115.265625 54.753906 115.523438 54.601562 C 115.78125 54.453125 116.046875 54.40625 116.316406 54.464844 C 116.585938 54.519531 116.882812 54.675781 117.203125 54.929688 Z M 116.875 55.34375 C 116.671875 55.183594 116.484375 55.089844 116.316406 55.058594 C 116.148438 55.03125 115.980469 55.074219 115.808594 55.191406 C 115.636719 55.304688 115.441406 55.496094 115.226562 55.769531 C 115.011719 56.046875 114.867188 56.28125 114.796875 56.472656 C 114.726562 56.667969 114.722656 56.839844 114.789062 57 C 114.859375 57.152344 114.996094 57.3125 115.199219 57.472656 C 115.402344 57.632812 115.589844 57.730469 115.761719 57.761719 C 115.929688 57.792969 116.101562 57.75 116.269531 57.632812 C 116.441406 57.519531 116.636719 57.324219 116.851562 57.050781 C 117.066406 56.777344 117.210938 56.542969 117.28125 56.351562 C 117.355469 56.15625 117.355469 55.980469 117.285156 55.824219 C 117.214844 55.664062 117.078125 55.503906 116.875 55.34375 Z M 116.875 55.34375 "/>
<path style=" stroke:none;fill-rule:nonzero;fill:rgb(100%,100%,100%);fill-opacity:1;" d="M 121.347656 59.265625 L 121.78125 59.765625 L 118.328125 61.007812 C 118.277344 61.027344 118.226562 61.027344 118.183594 61.015625 C 118.140625 61.007812 118.097656 60.980469 118.0625 60.941406 L 117.695312 60.511719 C 117.664062 60.472656 117.644531 60.429688 117.640625 60.382812 C 117.632812 60.335938 117.644531 60.289062 117.667969 60.242188 L 119.417969 57.015625 L 119.851562 57.519531 L 118.523438 59.828125 C 118.472656 59.925781 118.417969 60.019531 118.355469 60.117188 C 118.296875 60.214844 118.242188 60.308594 118.191406 60.398438 L 118.25 60.46875 C 118.355469 60.429688 118.460938 60.390625 118.5625 60.351562 C 118.667969 60.3125 118.769531 60.269531 118.871094 60.230469 Z M 121.347656 59.265625 "/>
<path style=" stroke:none;fill-rule:nonzero;fill:rgb(100%,100%,100%);fill-opacity:1;" d="M 123.894531 63.21875 L 124.238281 63.800781 L 120.25 64.480469 C 120.082031 64.511719 119.914062 64.523438 119.738281 64.523438 C 119.5625 64.527344 119.386719 64.503906 119.214844 64.460938 C 119.046875 64.414062 118.882812 64.339844 118.730469 64.234375 C 118.578125 64.128906 118.4375 63.980469 118.316406 63.796875 L 118.644531 63.535156 C 118.871094 63.738281 119.089844 63.871094 119.308594 63.925781 C 119.523438 63.980469 119.75 63.992188 119.992188 63.957031 L 120.449219 63.894531 C 120.554688 63.878906 120.667969 63.855469 120.789062 63.828125 C 120.910156 63.804688 121.019531 63.785156 121.117188 63.765625 Z M 122.402344 60.679688 L 122.742188 61.257812 L 120.921875 63.429688 C 120.871094 63.488281 120.820312 63.546875 120.769531 63.601562 C 120.722656 63.660156 120.667969 63.714844 120.613281 63.761719 L 120.699219 63.910156 L 120.183594 63.972656 L 120.085938 63.808594 C 120.0625 63.765625 120.050781 63.722656 120.054688 63.667969 C 120.058594 63.617188 120.078125 63.574219 120.113281 63.535156 Z M 122.402344 60.679688 "/>
<path style=" stroke:none;fill-rule:nonzero;fill:rgb(100%,100%,100%);fill-opacity:1;" d="M 125.511719 66.71875 C 125.605469 66.96875 125.652344 67.191406 125.652344 67.386719 C 125.652344 67.585938 125.589844 67.757812 125.46875 67.902344 C 125.34375 68.050781 125.148438 68.171875 124.875 68.277344 L 122.515625 69.175781 L 122.34375 68.71875 L 123.035156 68.347656 L 123.097656 68.277344 L 124.652344 67.6875 C 124.859375 67.605469 124.988281 67.503906 125.042969 67.375 C 125.09375 67.246094 125.070312 67.050781 124.96875 66.785156 C 124.902344 66.613281 124.8125 66.394531 124.691406 66.136719 C 124.574219 65.882812 124.453125 65.628906 124.332031 65.378906 L 124.746094 65.160156 C 124.832031 65.304688 124.921875 65.46875 125.015625 65.644531 C 125.109375 65.820312 125.199219 66.003906 125.285156 66.191406 C 125.375 66.378906 125.449219 66.554688 125.511719 66.71875 Z M 123.824219 66.402344 L 124.476562 68.113281 L 124.035156 68.277344 L 123.417969 66.675781 C 123.351562 66.515625 123.265625 66.421875 123.15625 66.386719 C 123.054688 66.355469 122.929688 66.363281 122.789062 66.417969 L 122.578125 66.5 C 122.402344 66.566406 122.289062 66.65625 122.242188 66.769531 C 122.191406 66.882812 122.203125 67.03125 122.273438 67.214844 C 122.324219 67.34375 122.402344 67.480469 122.511719 67.621094 C 122.625 67.769531 122.761719 67.902344 122.921875 68.03125 C 123.085938 68.15625 123.273438 68.257812 123.484375 68.335938 L 123.046875 68.503906 C 122.964844 68.476562 122.863281 68.433594 122.742188 68.371094 C 122.621094 68.308594 122.496094 68.230469 122.367188 68.128906 C 122.234375 68.027344 122.113281 67.910156 122 67.769531 C 121.886719 67.632812 121.796875 67.472656 121.726562 67.289062 C 121.652344 67.09375 121.621094 66.90625 121.632812 66.726562 C 121.648438 66.546875 121.707031 66.390625 121.8125 66.25 C 121.921875 66.113281 122.078125 66.003906 122.277344 65.925781 L 122.644531 65.789062 C 122.90625 65.6875 123.136719 65.691406 123.34375 65.800781 C 123.550781 65.910156 123.710938 66.109375 123.824219 66.402344 Z M 123.824219 66.402344 "/>
<path style=" stroke:none;fill-rule:nonzero;fill:rgb(100%,100%,100%);fill-opacity:1;" d="M 75.183594 75.664062 C 75.183594 75.335938 75.445312 75.070312 75.773438 75.070312 C 76.097656 75.070312 76.363281 75.335938 76.363281 75.664062 C 76.363281 75.988281 76.097656 76.253906 75.773438 76.253906 C 75.445312 76.253906 75.183594 75.988281 75.183594 75.664062 Z M 75.183594 75.664062 "/>
<path style=" stroke:none;fill-rule:nonzero;fill:rgb(100%,100%,100%);fill-opacity:1;" d="M 124.578125 75.664062 C 124.578125 75.335938 124.84375 75.070312 125.167969 75.070312 C 125.496094 75.070312 125.761719 75.335938 125.761719 75.664062 C 125.761719 75.988281 125.496094 76.253906 125.167969 76.253906 C 124.84375 76.253906 124.578125 75.988281 124.578125 75.664062 Z M 124.578125 75.664062 "/>
<path style=" stroke:none;fill-rule:nonzero;fill:rgb(100%,100%,100%);fill-opacity:1;" d="M 80.027344 85.65625 L 80.257812 86.273438 L 76.253906 86.820312 L 75.925781 85.945312 L 78.792969 84.132812 L 75.433594 84.636719 L 75.113281 83.78125 L 78.480469 81.53125 L 78.722656 82.175781 L 75.730469 84.058594 L 79.246094 83.570312 L 79.515625 84.289062 L 76.535156 86.203125 Z M 80.027344 85.65625 "/>
<path style=" stroke:none;fill-rule:nonzero;fill:rgb(100%,100%,100%);fill-opacity:1;" d="M 84.765625 94.769531 C 84.683594 94.851562 84.597656 94.933594 84.511719 95.011719 L 82.714844 93.25 C 82.433594 93.582031 82.285156 93.886719 82.277344 94.167969 C 82.269531 94.445312 82.375 94.6875 82.589844 94.898438 C 82.722656 95.03125 82.867188 95.132812 83.019531 95.203125 C 83.171875 95.277344 83.351562 95.332031 83.558594 95.367188 L 83.488281 95.871094 C 82.957031 95.8125 82.515625 95.609375 82.15625 95.261719 C 81.765625 94.875 81.585938 94.449219 81.621094 93.980469 C 81.652344 93.507812 81.886719 93.046875 82.328125 92.597656 C 82.613281 92.304688 82.914062 92.09375 83.230469 91.960938 C 83.546875 91.828125 83.855469 91.78125 84.15625 91.828125 C 84.460938 91.871094 84.730469 92.011719 84.96875 92.246094 C 85.339844 92.613281 85.507812 93.015625 85.464844 93.457031 C 85.425781 93.898438 85.191406 94.335938 84.765625 94.769531 Z M 84.390625 94.179688 L 84.421875 94.148438 C 84.691406 93.871094 84.847656 93.605469 84.878906 93.351562 C 84.910156 93.097656 84.816406 92.863281 84.597656 92.648438 C 84.195312 92.25 83.6875 92.332031 83.070312 92.886719 Z M 84.390625 94.179688 "/>
<path style=" stroke:none;fill-rule:nonzero;fill:rgb(100%,100%,100%);fill-opacity:1;" d="M 90.960938 100.832031 C 90.726562 100.734375 90.570312 100.585938 90.492188 100.390625 C 90.414062 100.195312 90.429688 99.96875 90.535156 99.714844 L 92.359375 95.328125 L 93.023438 95.515625 L 91.175781 99.964844 C 91.132812 100.066406 91.121094 100.148438 91.136719 100.207031 C 91.152344 100.265625 91.199219 100.3125 91.285156 100.347656 C 91.371094 100.386719 91.457031 100.402344 91.535156 100.40625 L 91.515625 100.917969 C 91.332031 100.9375 91.144531 100.90625 90.960938 100.832031 Z M 90.960938 100.832031 "/>
<g clip-path="url(#clip6)" clip-rule="nonzero">
<path style=" stroke:none;fill-rule:nonzero;fill:rgb(100%,100%,100%);fill-opacity:1;" d="M 101.164062 98.421875 C 101.523438 98.429688 101.800781 98.539062 102 98.757812 C 102.199219 98.976562 102.292969 99.273438 102.289062 99.644531 L 102.242188 102.472656 L 101.554688 102.460938 L 101.597656 99.730469 C 101.601562 99.453125 101.554688 99.253906 101.453125 99.136719 C 101.347656 99.019531 101.195312 98.960938 100.992188 98.957031 C 100.78125 98.953125 100.597656 99.011719 100.433594 99.128906 C 100.273438 99.246094 100.121094 99.414062 99.976562 99.636719 L 99.929688 102.433594 L 99.242188 102.421875 L 99.308594 98.480469 L 99.898438 98.492188 L 99.949219 99.074219 C 100.09375 98.867188 100.269531 98.707031 100.476562 98.589844 C 100.6875 98.472656 100.914062 98.417969 101.164062 98.421875 Z M 101.164062 98.421875 "/>
</g>
<path style=" stroke:none;fill-rule:nonzero;fill:rgb(100%,100%,100%);fill-opacity:1;" d="M 112.386719 97.355469 C 112.433594 97.460938 112.476562 97.566406 112.515625 97.679688 L 110.222656 98.707031 C 110.429688 99.09375 110.660156 99.339844 110.917969 99.449219 C 111.171875 99.558594 111.4375 99.550781 111.710938 99.429688 C 111.882812 99.351562 112.03125 99.253906 112.15625 99.136719 C 112.277344 99.023438 112.394531 98.875 112.503906 98.695312 L 112.945312 98.945312 C 112.699219 99.417969 112.347656 99.757812 111.890625 99.960938 C 111.390625 100.1875 110.925781 100.195312 110.5 99.996094 C 110.074219 99.792969 109.734375 99.40625 109.476562 98.832031 C 109.308594 98.457031 109.21875 98.101562 109.210938 97.757812 C 109.203125 97.414062 109.273438 97.113281 109.425781 96.847656 C 109.578125 96.582031 109.804688 96.382812 110.109375 96.246094 C 110.585938 96.03125 111.023438 96.023438 111.417969 96.222656 C 111.8125 96.421875 112.136719 96.800781 112.386719 97.355469 Z M 111.699219 97.488281 L 111.683594 97.449219 C 111.523438 97.09375 111.332031 96.855469 111.105469 96.730469 C 110.882812 96.609375 110.628906 96.609375 110.347656 96.738281 C 109.832031 96.96875 109.722656 97.46875 110.015625 98.246094 Z M 111.699219 97.488281 "/>
<path style=" stroke:none;fill-rule:nonzero;fill:rgb(100%,100%,100%);fill-opacity:1;" d="M 117.429688 90.742188 C 117.609375 90.542969 117.800781 90.386719 117.996094 90.277344 C 118.195312 90.167969 118.417969 90.09375 118.65625 90.046875 L 118.785156 90.554688 C 118.582031 90.613281 118.402344 90.683594 118.253906 90.765625 C 118.105469 90.847656 117.972656 90.957031 117.851562 91.089844 C 117.699219 91.257812 117.617188 91.421875 117.597656 91.578125 C 117.578125 91.738281 117.628906 91.871094 117.75 91.976562 C 117.867188 92.082031 118 92.121094 118.148438 92.089844 C 118.296875 92.058594 118.507812 91.953125 118.785156 91.773438 C 119.160156 91.519531 119.492188 91.378906 119.78125 91.34375 C 120.066406 91.308594 120.328125 91.402344 120.574219 91.621094 C 120.863281 91.878906 120.984375 92.191406 120.933594 92.554688 C 120.882812 92.914062 120.710938 93.253906 120.421875 93.578125 C 120.019531 94.023438 119.5625 94.277344 119.042969 94.339844 L 118.976562 93.785156 C 119.390625 93.707031 119.730469 93.519531 120 93.21875 C 120.175781 93.027344 120.273438 92.839844 120.292969 92.652344 C 120.316406 92.46875 120.257812 92.316406 120.121094 92.191406 C 120.019531 92.101562 119.921875 92.046875 119.824219 92.035156 C 119.726562 92.019531 119.609375 92.042969 119.472656 92.101562 C 119.335938 92.160156 119.15625 92.261719 118.929688 92.40625 C 118.570312 92.644531 118.257812 92.769531 117.996094 92.785156 C 117.730469 92.800781 117.496094 92.714844 117.285156 92.527344 C 117.132812 92.386719 117.035156 92.21875 116.992188 92.015625 C 116.949219 91.8125 116.96875 91.597656 117.046875 91.378906 C 117.121094 91.15625 117.25 90.941406 117.429688 90.742188 Z M 117.429688 90.742188 "/>
<path style=" stroke:none;fill-rule:nonzero;fill:rgb(100%,100%,100%);fill-opacity:1;" d="M 121.882812 83.027344 C 121.96875 82.777344 122.085938 82.558594 122.226562 82.382812 C 122.367188 82.203125 122.539062 82.046875 122.746094 81.914062 L 123.058594 82.332031 C 122.890625 82.464844 122.753906 82.597656 122.648438 82.730469 C 122.546875 82.867188 122.464844 83.019531 122.40625 83.1875 C 122.328125 83.402344 122.3125 83.582031 122.355469 83.734375 C 122.402344 83.890625 122.5 83.992188 122.652344 84.046875 C 122.800781 84.097656 122.9375 84.082031 123.0625 83.996094 C 123.1875 83.910156 123.34375 83.730469 123.53125 83.457031 C 123.777344 83.078125 124.027344 82.816406 124.28125 82.675781 C 124.53125 82.53125 124.808594 82.515625 125.121094 82.625 C 125.488281 82.753906 125.71875 82.992188 125.8125 83.347656 C 125.90625 83.699219 125.878906 84.078125 125.734375 84.488281 C 125.539062 85.054688 125.210938 85.46875 124.757812 85.726562 L 124.484375 85.238281 C 124.832031 85.007812 125.074219 84.703125 125.210938 84.320312 C 125.296875 84.074219 125.3125 83.863281 125.261719 83.683594 C 125.210938 83.507812 125.097656 83.386719 124.921875 83.324219 C 124.796875 83.28125 124.683594 83.269531 124.589844 83.292969 C 124.492188 83.320312 124.394531 83.386719 124.292969 83.492188 C 124.1875 83.597656 124.058594 83.761719 123.90625 83.984375 C 123.667969 84.34375 123.425781 84.578125 123.191406 84.695312 C 122.953125 84.8125 122.703125 84.824219 122.433594 84.730469 C 122.242188 84.664062 122.085938 84.542969 121.96875 84.375 C 121.851562 84.199219 121.785156 83.996094 121.769531 83.761719 C 121.753906 83.527344 121.792969 83.285156 121.882812 83.027344 Z M 121.882812 83.027344 "/>
</g>
</svg>
