<?xml version="1.0" encoding="UTF-8"?>
<!DOCTYPE svg PUBLIC "-//W3C//DTD SVG 1.1//EN" "http://www.w3.org/Graphics/SVG/1.1/DTD/svg11.dtd">
<svg xmlns="http://www.w3.org/2000/svg" version="1.1" width="500px" height="500px" style="shape-rendering:geometricPrecision; text-rendering:geometricPrecision; image-rendering:optimizeQuality; fill-rule:evenodd; clip-rule:evenodd" xmlns:xlink="http://www.w3.org/1999/xlink">
<g><path style="opacity:1" fill="#fefefe" d="M -0.5,-0.5 C 166.167,-0.5 332.833,-0.5 499.5,-0.5C 499.5,166.167 499.5,332.833 499.5,499.5C 332.833,499.5 166.167,499.5 -0.5,499.5C -0.5,332.833 -0.5,166.167 -0.5,-0.5 Z"/></g>
<g><path style="opacity:1" fill="#ffa52c" d="M 243.5,160.5 C 245.5,160.5 247.5,160.5 249.5,160.5C 248.606,166.196 247.606,171.863 246.5,177.5C 247.675,177.281 248.675,177.614 249.5,178.5C 247.604,179.466 245.604,179.799 243.5,179.5C 244.34,173.805 245.34,168.139 246.5,162.5C 244.821,162.715 243.821,162.048 243.5,160.5 Z"/></g>
<g><path style="opacity:1" fill="#ffa123" d="M 256.5,161.5 C 258.527,161.338 260.527,161.505 262.5,162C 263.713,168.181 263.046,174.181 260.5,180C 258.044,180.946 256.044,180.446 254.5,178.5C 255.331,172.865 255.998,167.199 256.5,161.5 Z"/></g>
<g><path style="opacity:1" fill="#fff4e4" d="M 258.5,162.5 C 260.89,162.685 261.89,164.018 261.5,166.5C 261.232,170.76 260.232,174.76 258.5,178.5C 257.563,173.188 257.563,167.854 258.5,162.5 Z"/></g>
<g><path style="opacity:1" fill="#ffa631" d="M 221.5,163.5 C 222.376,163.369 223.043,163.702 223.5,164.5C 226.764,169.969 228.764,175.636 229.5,181.5C 228.579,179.244 226.912,178.244 224.5,178.5C 224.785,180.288 224.452,181.955 223.5,183.5C 221.778,176.817 221.111,170.15 221.5,163.5 Z"/></g>
<g><path style="opacity:1" fill="#ffa327" d="M 272.5,163.5 C 275.864,162.873 277.864,164.206 278.5,167.5C 277.178,171.79 276.011,176.123 275,180.5C 270.822,183.75 268.655,182.75 268.5,177.5C 268.907,172.534 270.24,167.867 272.5,163.5 Z"/></g>
<g><path style="opacity:1" fill="#fff8ef" d="M 273.5,165.5 C 274.693,165.97 275.36,166.97 275.5,168.5C 274.825,172.201 273.991,175.868 273,179.5C 271.513,180.741 270.68,180.241 270.5,178C 271.426,173.797 272.426,169.63 273.5,165.5 Z"/></g>
<g><path style="opacity:1" fill="#ffa329" d="M 210.5,167.5 C 212.25,170.355 213.083,173.689 213,177.5C 215.167,179.667 217.333,181.833 219.5,184C 216.358,183.912 213.858,182.412 212,179.5C 212.049,181.675 212.549,183.842 213.5,186C 213.167,186.5 212.833,187 212.5,187.5C 210.076,182.984 207.91,178.317 206,173.5C 206.038,168.33 206.871,168.33 208.5,173.5C 208.987,174.473 209.487,175.473 210,176.5C 210.498,173.518 210.665,170.518 210.5,167.5 Z"/></g>
<g><path style="opacity:1" fill="#ffd08d" d="M 210.5,167.5 C 210.665,170.518 210.498,173.518 210,176.5C 209.487,175.473 208.987,174.473 208.5,173.5C 209.167,171.5 209.833,169.5 210.5,167.5 Z"/></g>
<g><path style="opacity:1" fill="#fff7ed" d="M 223.5,170.5 C 225.399,172.253 226.065,174.253 225.5,176.5C 223.914,174.827 223.247,172.827 223.5,170.5 Z"/></g>
<g><path style="opacity:1" fill="#ffa429" d="M 286.5,167.5 C 289.8,167.507 291.8,169.007 292.5,172C 290.687,177.453 288.354,182.62 285.5,187.5C 285.055,184.782 285.721,182.115 287.5,179.5C 287.167,178.5 286.5,177.833 285.5,177.5C 284.167,180.167 282.833,182.833 281.5,185.5C 281.167,184.833 280.833,184.167 280.5,183.5C 282.51,178.151 284.51,172.817 286.5,167.5 Z"/></g>
<g><path style="opacity:1" fill="#fff4e4" d="M 287.5,170.5 C 288.5,170.5 289.5,170.5 290.5,170.5C 290.553,173.061 289.553,175.061 287.5,176.5C 286.481,174.54 286.481,172.54 287.5,170.5 Z"/></g>
<g><path style="opacity:1" fill="#ffa327" d="M 181.5,183.5 C 182.873,183.343 184.207,183.51 185.5,184C 187.698,187.709 190.531,190.875 194,193.5C 195.477,197.998 193.977,200.165 189.5,200C 186.453,196.075 183.286,192.241 180,188.5C 179.387,186.505 179.887,184.838 181.5,183.5 Z"/></g>
<g><path style="opacity:1" fill="#fff7eb" d="M 182.5,185.5 C 185.719,186.021 186.719,187.688 185.5,190.5C 183.244,189.579 182.244,187.912 182.5,185.5 Z"/></g>
<g><path style="opacity:1" fill="#ffa226" d="M 300.5,174.5 C 304.805,174.842 306.305,177.176 305,181.5C 303.167,184.5 301.333,187.5 299.5,190.5C 296.123,193.485 293.79,192.819 292.5,188.5C 294.657,183.518 297.323,178.851 300.5,174.5 Z"/></g>
<g><path style="opacity:1" fill="#fff7eb" d="M 300.5,177.5 C 301.675,177.281 302.675,177.614 303.5,178.5C 301.812,183.226 299.145,187.226 295.5,190.5C 294.417,189.635 294.251,188.635 295,187.5C 297.112,184.273 298.945,180.94 300.5,177.5 Z"/></g>
<g><path style="opacity:1" fill="#ffa225" d="M 196.5,173.5 C 200.383,178.092 203.383,183.258 205.5,189C 204.325,192.337 202.159,193.171 199,191.5C 196.667,187.5 194.333,183.5 192,179.5C 191.251,178.365 191.417,177.365 192.5,176.5C 192.833,176.833 193.167,177.167 193.5,177.5C 195.773,182.394 198.773,186.727 202.5,190.5C 203.583,189.635 203.749,188.635 203,187.5C 200.626,183.25 198.126,179.084 195.5,175C 196.056,174.617 196.389,174.117 196.5,173.5 Z"/></g>
<g><path style="opacity:1" fill="#ffa429" d="M 172.5,191.5 C 176.223,195.92 179.723,200.586 183,205.5C 187.535,203.421 187.702,204.255 183.5,208C 182.551,208.617 181.718,208.451 181,207.5C 178.083,203.334 175.416,199.001 173,194.5C 172.035,196.26 170.868,196.594 169.5,195.5C 170.524,194.148 171.524,192.815 172.5,191.5 Z"/></g>
<g><path style="opacity:1" fill="#fffaf4" d="M 187.5,191.5 C 191.019,192.309 192.352,194.309 191.5,197.5C 188.929,196.272 187.595,194.272 187.5,191.5 Z"/></g>
<g><path style="opacity:1" fill="#ffa01e" d="M 312.5,181.5 C 313.497,181.47 314.164,181.97 314.5,183C 305.746,196.518 306.746,197.518 317.5,186C 318.332,185.312 318.998,185.479 319.5,186.5C 303.036,204.703 300.703,203.037 312.5,181.5 Z"/></g>
<g><path style="opacity:1" fill="#82d374" d="M 261.5,218.5 C 263.757,213.728 265.424,208.728 266.5,203.5C 264.878,201.359 262.878,199.692 260.5,198.5C 262.328,194.083 264.494,193.749 267,197.5C 271.192,203.21 273.692,209.543 274.5,216.5C 274.493,219.592 273.993,222.592 273,225.5C 271.882,222.145 270.382,218.978 268.5,216C 265.793,215.683 263.46,216.516 261.5,218.5 Z"/></g>
<g><path style="opacity:1" fill="#ffa62f" d="M 323.5,191.5 C 324.376,191.369 325.043,191.702 325.5,192.5C 320.955,199.077 321.955,200.077 328.5,195.5C 328.833,195.833 329.167,196.167 329.5,196.5C 323.967,199.434 318.967,203.1 314.5,207.5C 313.542,204.558 314.709,202.558 318,201.5C 320.062,198.277 321.896,194.943 323.5,191.5 Z"/></g>
<g><path style="opacity:1" fill="#87d579" d="M 259.5,198.5 C 259.38,199.586 258.713,200.253 257.5,200.5C 255.726,200.113 254.059,199.447 252.5,198.5C 248.817,200.341 245.484,202.674 242.5,205.5C 241.571,204.311 241.238,202.978 241.5,201.5C 244.024,200.073 246.69,198.906 249.5,198C 250.856,195.602 252.023,193.102 253,190.5C 252.87,195.243 255.036,197.909 259.5,198.5 Z"/></g>
<g><path style="opacity:1" fill="#f4fbf3" d="M 259.5,198.5 C 259.833,198.5 260.167,198.5 260.5,198.5C 262.878,199.692 264.878,201.359 266.5,203.5C 265.424,208.728 263.757,213.728 261.5,218.5C 261.672,219.492 261.338,220.158 260.5,220.5C 260.565,220.062 260.399,219.728 260,219.5C 259.311,220.357 258.478,221.023 257.5,221.5C 256.52,220.019 255.353,218.685 254,217.5C 254.323,212.52 254.823,207.52 255.5,202.5C 253.533,202.261 251.699,202.594 250,203.5C 249.892,207.177 249.892,210.843 250,214.5C 248.434,215.061 247.101,214.394 246,212.5C 245.781,213.938 245.281,215.271 244.5,216.5C 240.674,212.043 239.341,207.043 240.5,201.5C 240.833,201.5 241.167,201.5 241.5,201.5C 241.238,202.978 241.571,204.311 242.5,205.5C 245.484,202.674 248.817,200.341 252.5,198.5C 254.059,199.447 255.726,200.113 257.5,200.5C 258.713,200.253 259.38,199.586 259.5,198.5 Z"/></g>
<g><path style="opacity:1" fill="#7fd270" d="M 258.5,201.5 C 262.146,202.462 263.313,204.795 262,208.5C 261.21,212.128 259.043,214.128 255.5,214.5C 255.718,209.962 256.718,205.629 258.5,201.5 Z"/></g>
<g><path style="opacity:1" fill="#7cd16d" d="M 201.5,202.5 C 209.188,205.016 215.688,209.35 221,215.5C 221.372,221.284 222.039,226.951 223,232.5C 217.412,229.79 211.579,227.79 205.5,226.5C 202.091,218.857 200.757,210.857 201.5,202.5 Z"/></g>
<g><path style="opacity:1" fill="#7cd16d" d="M 295.5,202.5 C 296.787,203.871 297.453,205.705 297.5,208C 297.124,214.379 295.791,220.545 293.5,226.5C 287.276,227.408 281.443,229.408 276,232.5C 276.858,226.928 277.525,221.262 278,215.5C 283.099,210.049 288.932,205.715 295.5,202.5 Z"/></g>
<g><path style="opacity:1" fill="#ffa224" d="M 334.5,203.5 C 335.922,203.75 336.922,204.583 337.5,206C 333,210.5 328.5,215 324,219.5C 323.289,217.633 323.789,216.133 325.5,215C 324.667,214.167 323.833,213.333 323,212.5C 321.817,213.731 320.651,213.731 319.5,212.5C 324.729,209.726 329.729,206.726 334.5,203.5 Z"/></g>
<g><path style="opacity:1" fill="#ffa42a" d="M 161.5,204.5 C 167.861,206.513 173.861,209.346 179.5,213C 179,213.5 178.5,214 178,214.5C 173.611,213.219 172.778,214.386 175.5,218C 175,218.5 174.5,219 174,219.5C 170,215.5 166,211.5 162,207.5C 161.517,206.552 161.351,205.552 161.5,204.5 Z"/></g>
<g><path style="opacity:1" fill="#fff2e0" d="M 166.5,209.5 C 166.56,208.957 166.893,208.624 167.5,208.5C 169.336,209.919 171.336,211.086 173.5,212C 172.975,212.692 172.308,213.192 171.5,213.5C 169.814,212.143 168.148,210.81 166.5,209.5 Z"/></g>
<g><path style="opacity:1" fill="#fff7ed" d="M 329.5,208.5 C 330.239,208.369 330.906,208.536 331.5,209C 329.983,210.685 328.316,212.185 326.5,213.5C 325.479,212.998 325.312,212.332 326,211.5C 327.518,210.837 328.685,209.837 329.5,208.5 Z"/></g>
<g><path style="opacity:1" fill="#f7fcf6" d="M 258.5,231.5 C 258.682,229.409 258.348,227.409 257.5,225.5C 257.833,225.167 258.167,224.833 258.5,224.5C 264.002,238.964 263.669,253.297 257.5,267.5C 256.778,267.082 256.278,266.416 256,265.5C 253.095,272.005 251.762,271.338 252,263.5C 249.728,258.168 245.895,256.168 240.5,257.5C 241.456,259.075 242.123,260.742 242.5,262.5C 241.833,262.5 241.5,262.833 241.5,263.5C 240.039,261.648 239.039,259.482 238.5,257C 239.25,252.876 239.25,248.709 238.5,244.5C 238.232,242.901 238.566,241.568 239.5,240.5C 239.369,241.376 239.702,242.043 240.5,242.5C 247.923,238.066 250.09,231.733 247,223.5C 246.617,222.944 246.117,222.611 245.5,222.5C 245.5,221.833 245.5,221.167 245.5,220.5C 246.933,219.047 248.6,218.213 250.5,218C 253.319,222.481 255.986,226.981 258.5,231.5 Z"/></g>
<g><path style="opacity:1" fill="#7fd270" d="M 238.5,244.5 C 239.25,248.709 239.25,252.876 238.5,257C 239.039,259.482 240.039,261.648 241.5,263.5C 242.028,264.847 242.195,266.181 242,267.5C 228.414,255.072 224.414,240.072 230,222.5C 230.347,220.82 231.347,219.82 233,219.5C 236.086,221.298 238.919,223.464 241.5,226C 237.126,231.799 235.626,238.299 237,245.5C 237.383,244.944 237.883,244.611 238.5,244.5 Z"/></g>
<g><path style="opacity:1" fill="#7fd270" d="M 240.5,201.5 C 239.341,207.043 240.674,212.043 244.5,216.5C 245.281,215.271 245.781,213.938 246,212.5C 247.101,214.394 248.434,215.061 250,214.5C 249.892,210.843 249.892,207.177 250,203.5C 251.699,202.594 253.533,202.261 255.5,202.5C 254.823,207.52 254.323,212.52 254,217.5C 255.353,218.685 256.52,220.019 257.5,221.5C 258.478,221.023 259.311,220.357 260,219.5C 260.399,219.728 260.565,220.062 260.5,220.5C 260.369,221.376 260.702,222.043 261.5,222.5C 262.646,221.855 263.646,221.022 264.5,220C 265.635,219.251 266.635,219.417 267.5,220.5C 274.751,238.487 271.418,254.153 257.5,267.5C 263.669,253.297 264.002,238.964 258.5,224.5C 258.167,224.833 257.833,225.167 257.5,225.5C 258.348,227.409 258.682,229.409 258.5,231.5C 255.986,226.981 253.319,222.481 250.5,218C 248.6,218.213 246.933,219.047 245.5,220.5C 245.631,219.624 245.298,218.957 244.5,218.5C 243.281,219.263 242.281,220.263 241.5,221.5C 238.457,219.287 235.29,217.287 232,215.5C 229.017,218.113 227.017,221.446 226,225.5C 222.839,213.461 225.839,203.128 235,194.5C 237.325,196.501 239.158,198.834 240.5,201.5 Z"/></g>
<g><path style="opacity:1" fill="#7dd26e" d="M 187.5,220.5 C 194.055,221.528 199.555,224.528 204,229.5C 204.343,240.179 208.01,249.512 215,257.5C 215.688,258.332 215.521,258.998 214.5,259.5C 195.344,253.518 186.344,240.518 187.5,220.5 Z"/></g>
<g><path style="opacity:1" fill="#7dd26e" d="M 307.5,220.5 C 308.833,220.5 310.167,220.5 311.5,220.5C 312.991,241.618 303.658,254.285 283.5,258.5C 290.667,250.164 294.5,240.498 295,229.5C 298.616,225.62 302.783,222.62 307.5,220.5 Z"/></g>
<g><path style="opacity:1" fill="#83d475" d="M 245.5,222.5 C 246.117,222.611 246.617,222.944 247,223.5C 250.09,231.733 247.923,238.066 240.5,242.5C 239.702,242.043 239.369,241.376 239.5,240.5C 240.102,234.027 242.102,228.027 245.5,222.5 Z"/></g>
<g><path style="opacity:1" fill="#7dd26e" d="M 207.5,230.5 C 213.049,231.349 218.383,233.016 223.5,235.5C 225.267,251.536 232.6,264.37 245.5,274C 227.731,269.57 215.564,258.736 209,241.5C 208.281,237.855 207.781,234.188 207.5,230.5 Z"/></g>
<g><path style="opacity:1" fill="#7ed270" d="M 242.5,262.5 C 242.123,260.742 241.456,259.075 240.5,257.5C 245.895,256.168 249.728,258.168 252,263.5C 251.762,271.338 253.095,272.005 256,265.5C 256.278,266.416 256.778,267.082 257.5,267.5C 254.697,272.045 255.364,272.545 259.5,269C 268.714,259.737 274.047,248.57 275.5,235.5C 280.474,232.619 285.807,230.953 291.5,230.5C 291.206,245.92 284.54,257.754 271.5,266C 265.766,269.374 259.766,271.874 253.5,273.5C 253.02,276.685 253.686,279.519 255.5,282C 254.407,283.365 253.074,283.699 251.5,283C 250.262,280.382 250.262,277.715 251.5,275C 247.92,271.253 244.92,267.086 242.5,262.5 Z"/></g>
<g><path style="opacity:1" fill="#a5df9b" d="M 258.5,231.5 C 260.789,235.449 261.623,239.783 261,244.5C 260.004,240.184 259.17,235.851 258.5,231.5 Z"/></g>
<g><path style="opacity:1" fill="#7fd270" d="M 251.5,243.5 C 252.117,243.611 252.617,243.944 253,244.5C 253.499,248.152 253.665,251.818 253.5,255.5C 248.817,255.493 244.817,253.826 241.5,250.5C 244.851,248.141 248.185,245.808 251.5,243.5 Z"/></g>
<g><path style="opacity:1" fill="#f4fbf3" d="M 234.5,246.5 C 236.482,248.597 237.482,251.264 237.5,254.5C 232.243,253.482 231.243,250.816 234.5,246.5 Z"/></g>
<g><path style="opacity:1" fill="#98db8b" d="M 259.5,247.5 C 260.549,251.829 260.049,256.162 258,260.5C 257.742,256.096 258.242,251.762 259.5,247.5 Z"/></g>
<g><path style="opacity:1" fill="#7dd26e" d="M 186.5,260.5 C 196.545,260.205 206.545,260.705 216.5,262C 221.023,263.852 225.023,266.518 228.5,270C 234.079,273.458 240.079,275.791 246.5,277C 220.738,283.713 197.071,279.38 175.5,264C 179.294,262.886 182.96,261.72 186.5,260.5 Z"/></g>
<g><path style="opacity:1" fill="#7dd26e" d="M 288.5,260.5 C 300.383,259.736 312.049,260.903 323.5,264C 302.454,278.673 279.454,283.006 254.5,277C 263.901,274.135 272.235,269.469 279.5,263C 282.628,262.159 285.628,261.325 288.5,260.5 Z"/></g>
<g><path style="opacity:1" fill="#ffaa39" d="M 223.5,286.5 C 225.604,286.201 227.604,286.534 229.5,287.5C 228.675,288.386 227.675,288.719 226.5,288.5C 226.5,290.5 226.5,292.5 226.5,294.5C 230.5,295.167 230.5,295.833 226.5,296.5C 226.5,298.833 226.5,301.167 226.5,303.5C 227.675,303.281 228.675,303.614 229.5,304.5C 227.604,305.466 225.604,305.799 223.5,305.5C 223.5,299.167 223.5,292.833 223.5,286.5 Z"/></g>
<g><path style="opacity:1" fill="#ffb044" d="M 235.5,286.5 C 236.5,286.5 237.5,286.5 238.5,286.5C 238.5,292.167 238.5,297.833 238.5,303.5C 239.675,303.281 240.675,303.614 241.5,304.5C 239.604,305.466 237.604,305.799 235.5,305.5C 235.5,299.167 235.5,292.833 235.5,286.5 Z"/></g>
<g><path style="opacity:1" fill="#ffa327" d="M 251.5,294.5 C 251.987,295.473 252.487,296.473 253,297.5C 253.499,293.848 253.665,290.182 253.5,286.5C 254.818,289.258 255.485,292.424 255.5,296C 255.167,299.167 254.833,302.333 254.5,305.5C 252.717,302.327 251.217,298.994 250,295.5C 249.824,298.882 249.324,302.215 248.5,305.5C 247.167,299.167 247.167,292.833 248.5,286.5C 249.897,289.026 250.897,291.692 251.5,294.5 Z"/></g>
<g><path style="opacity:1" fill="#ffdba7" d="M 253.5,286.5 C 253.665,290.182 253.499,293.848 253,297.5C 252.487,296.473 251.987,295.473 251.5,294.5C 252.167,291.833 252.833,289.167 253.5,286.5 Z"/></g>
<g><path style="opacity:1" fill="#ffaa39" d="M 261.5,286.5 C 263.604,286.201 265.604,286.534 267.5,287.5C 266.675,288.386 265.675,288.719 264.5,288.5C 264.5,290.5 264.5,292.5 264.5,294.5C 268.5,295.167 268.5,295.833 264.5,296.5C 264.5,298.833 264.5,301.167 264.5,303.5C 265.675,303.281 266.675,303.614 267.5,304.5C 265.604,305.466 263.604,305.799 261.5,305.5C 261.5,299.167 261.5,292.833 261.5,286.5 Z"/></g>
<g><path style="opacity:1" fill="#ffa938" d="M 204.5,286.5 C 205.5,286.5 206.5,286.5 207.5,286.5C 207.18,289.898 207.513,293.232 208.5,296.5C 210.148,284.154 211.981,283.821 214,295.5C 214.97,292.556 215.804,289.556 216.5,286.5C 217.233,292.52 216.9,298.52 215.5,304.5C 214.641,305.774 213.974,305.608 213.5,304C 211.592,294.456 210.258,294.956 209.5,305.5C 208.5,305.5 207.5,305.5 206.5,305.5C 206.378,299.104 205.711,292.771 204.5,286.5 Z"/></g>
<g><path style="opacity:1" fill="#ffa52d" d="M 274.5,286.5 C 279.895,285.555 281.561,287.555 279.5,292.5C 278.571,291.311 278.238,289.978 278.5,288.5C 277.5,288.5 276.5,288.5 275.5,288.5C 275.446,291.967 276.946,294.634 280,296.5C 283.05,302.154 281.55,304.987 275.5,305C 273.424,303.116 273.09,300.949 274.5,298.5C 277.368,305.444 278.535,305.111 278,297.5C 273.634,294.828 272.467,291.162 274.5,286.5 Z"/></g>
<g><path style="opacity:1" fill="#ffa52d" d="M 287.5,286.5 C 292.895,285.555 294.561,287.555 292.5,292.5C 291.571,291.311 291.238,289.978 291.5,288.5C 290.5,288.5 289.5,288.5 288.5,288.5C 288.446,291.967 289.946,294.634 293,296.5C 296.05,302.154 294.55,304.987 288.5,305C 286.424,303.116 286.09,300.949 287.5,298.5C 290.368,305.444 291.535,305.111 291,297.5C 286.634,294.828 285.467,291.162 287.5,286.5 Z"/></g>
</svg>
